<svg width="16" height="16" viewBox="0 0 16 16" fill="none" xmlns="http://www.w3.org/2000/svg">
<path fill-rule="evenodd" clip-rule="evenodd" d="M8 7C9.68718 7 11.0549 5.65685 11.0549 4C11.0549 2.34315 9.68718 1 8 1C6.31282 1 4.94509 2.34315 4.94509 4C4.94509 5.65685 6.31282 7 8 7ZM8 8C10.2496 8 12.0732 6.20914 12.0732 4C12.0732 1.79086 10.2496 0 8 0C5.75043 0 3.92679 1.79086 3.92679 4C3.92679 6.20914 5.75043 8 8 8Z" fill="black"/>
<path d="M15.5015 16C15.2458 16 15.031 15.8146 14.979 15.5688C14.3063 12.3892 11.4373 10 8 10C4.56271 10 1.69367 12.3892 1.02099 15.5688C0.968986 15.8146 0.754174 16 0.498496 16C0.189485 16 -0.0508287 15.7333 0.00926123 15.4356C0.749989 11.7663 4.04603 9 8 9C11.954 9 15.25 11.7663 15.9907 15.4356C16.0508 15.7333 15.8105 16 15.5015 16Z" fill="black"/>
</svg>
