<svg width="24" height="24" viewBox="0 0 24 24" fill="none" xmlns="http://www.w3.org/2000/svg">
<path d="M8.14645 11.6464C7.95118 11.8417 7.95118 12.1583 8.14645 12.3536C8.34171 12.5488 8.65829 12.5488 8.85355 12.3536L11.5 9.70711L11.5 16.5C11.5 16.7761 11.7239 17 12 17C12.2761 17 12.5 16.7761 12.5 16.5V9.70711L15.1464 12.3536C15.3417 12.5488 15.6583 12.5488 15.8536 12.3536C16.0488 12.1583 16.0488 11.8417 15.8536 11.6464L12.3536 8.14645C12.2895 8.08242 12.2295 8.04464 12.1652 8.02793C12.1135 8.00983 12.0579 8 12 8C11.8619 8 11.7369 8.05596 11.6464 8.14645L8.14645 11.6464Z" fill="black"/>
<path fill-rule="evenodd" clip-rule="evenodd" d="M12 19C15.866 19 19 15.866 19 12C19 8.13401 15.866 5 12 5C8.13401 5 5 8.13401 5 12C5 15.866 8.13401 19 12 19ZM12 20C16.4183 20 20 16.4183 20 12C20 7.58172 16.4183 4 12 4C7.58172 4 4 7.58172 4 12C4 16.4183 7.58172 20 12 20Z" fill="#12A200"/>
</svg>
