<svg width="24" height="24" viewBox="0 0 24 24" fill="none" xmlns="http://www.w3.org/2000/svg">
<path fill-rule="evenodd" clip-rule="evenodd" d="M12 5C8.13401 5 5 8.13401 5 12C5 14.2626 6.07345 16.2744 7.73884 17.5541L9.64645 15.6464C9.74021 15.5527 9.86739 15.5 10 15.5H14C14.1326 15.5 14.2598 15.5527 14.3536 15.6464L16.2612 17.5541C17.9266 16.2744 19 14.2626 19 12C19 10.8801 18.7374 9.82295 18.2708 8.88549C18.1478 8.63827 18.2484 8.33812 18.4957 8.21508C18.7429 8.09204 19.043 8.19271 19.1661 8.43993C19.7 9.5127 20 10.722 20 12C20 16.4183 16.4183 20 12 20C7.58172 20 4 16.4183 4 12C4 7.58172 7.58172 4 12 4C13.2824 4 14.4956 4.30209 15.5711 4.83945C15.8181 4.96287 15.9183 5.26317 15.7949 5.5102C15.6715 5.75723 15.3712 5.85743 15.1242 5.73401C14.1843 5.26443 13.1238 5 12 5ZM15.4085 18.1156L13.7929 16.5H10.2071L8.59154 18.1156C9.6002 18.6789 10.7626 19 12 19C13.2374 19 14.3998 18.6789 15.4085 18.1156Z" fill="black"/>
<path fill-rule="evenodd" clip-rule="evenodd" d="M12 6C12.2761 6 12.5 6.22386 12.5 6.5V7C12.5 7.27614 12.2761 7.5 12 7.5C11.7239 7.5 11.5 7.27614 11.5 7V6.5C11.5 6.22386 11.7239 6 12 6ZM8.99996 6.80385C9.2391 6.66577 9.5449 6.74771 9.68297 6.98686L9.93297 7.41987C10.071 7.65902 9.9891 7.96481 9.74996 8.10288C9.51081 8.24095 9.20501 8.15902 9.06694 7.91987L8.81694 7.48686C8.67887 7.24771 8.76081 6.94192 8.99996 6.80385ZM6.80385 9C6.94192 8.76085 7.24771 8.67891 7.48686 8.81699L7.91987 9.06699C8.15902 9.20506 8.24096 9.51085 8.10289 9.75C7.96481 9.98914 7.65902 10.0711 7.41987 9.93301L6.98686 9.68301C6.74771 9.54494 6.66578 9.23914 6.80385 9ZM6 12C6 11.7239 6.22386 11.5 6.5 11.5H7C7.27614 11.5 7.5 11.7239 7.5 12C7.5 12.2761 7.27614 12.5 7 12.5H6.5C6.22386 12.5 6 12.2761 6 12ZM16.5 12C16.5 11.7239 16.7239 11.5 17 11.5H17.5C17.7761 11.5 18 11.7239 18 12C18 12.2761 17.7761 12.5 17.5 12.5H17C16.7239 12.5 16.5 12.2761 16.5 12Z" fill="black"/>
<path fill-rule="evenodd" clip-rule="evenodd" d="M18.641 5.355C18.4427 5.15665 18.1239 5.1478 17.9149 5.33485L12.6669 10.1141C12.4583 10.0403 12.2338 10.0002 12 10.0002C10.8954 10.0002 10 10.8956 10 12.0002C10 13.1048 10.8954 14.0002 12 14.0002C13.1046 14.0002 14 13.1048 14 12.0002C14 11.764 13.9591 11.5374 13.8839 11.327L18.6612 6.08118C18.8482 5.87212 18.8394 5.55336 18.641 5.355Z" fill="black"/>
</svg>
