<svg width="16" height="16" viewBox="0 0 16 16" fill="none" xmlns="http://www.w3.org/2000/svg">
<path fill-rule="evenodd" clip-rule="evenodd" d="M0 0.5C0 0.223858 0.223858 0 0.5 0H6.5C6.77614 0 7 0.223858 7 0.5V6.5C7 6.77614 6.77614 7 6.5 7H0.5C0.223858 7 0 6.77614 0 6.5V0.5ZM1 1V6H6V1H1Z" fill="black"/>
<path fill-rule="evenodd" clip-rule="evenodd" d="M0 9.5C0 9.22386 0.223858 9 0.5 9H6.5C6.77614 9 7 9.22386 7 9.5V15.5C7 15.7761 6.77614 16 6.5 16H0.5C0.223858 16 0 15.7761 0 15.5V9.5ZM1 10V15H6V10H1Z" fill="black"/>
<path fill-rule="evenodd" clip-rule="evenodd" d="M9 0.5C9 0.223858 9.22386 0 9.5 0H15.5C15.7761 0 16 0.223858 16 0.5V6.5C16 6.77614 15.7761 7 15.5 7H9.5C9.22386 7 9 6.77614 9 6.5V0.5ZM10 1V6H15V1H10Z" fill="black"/>
<path fill-rule="evenodd" clip-rule="evenodd" d="M9 9.5C9 9.22386 9.22386 9 9.5 9H15.5C15.7761 9 16 9.22386 16 9.5V15.5C16 15.7761 15.7761 16 15.5 16H9.5C9.22386 16 9 15.7761 9 15.5V9.5ZM10 10V15H15V10H10Z" fill="black"/>
</svg>
