<svg width="24" height="24" viewBox="0 0 24 24" fill="none" xmlns="http://www.w3.org/2000/svg">
<path fill-rule="evenodd" clip-rule="evenodd" d="M14.907 4.69947C14.5161 4.3093 13.8829 4.30989 13.4928 4.70077L5.70776 12.5001C5.5723 12.6359 5.47871 12.8077 5.43815 12.9951L5.04698 14.8025C4.893 15.5139 5.5265 16.1463 6.23768 15.991L8.04437 15.5965C8.23171 15.5556 8.40333 15.4617 8.5388 15.326L16.3238 7.52659C16.714 7.13571 16.7134 6.50254 16.3225 6.11238L14.907 4.69947ZM14.2005 5.40723L15.616 6.82014L7.83104 14.6195L6.02435 15.014L6.41552 13.2066L14.2005 5.40723ZM4 18.5001C4 18.224 4.22386 18.0001 4.5 18.0001H19.5C19.7761 18.0001 20 18.224 20 18.5001C20 18.7762 19.7761 19.0001 19.5 19.0001H4.5C4.22386 19.0001 4 18.7762 4 18.5001Z" fill="black"/>
</svg>
