<svg width="48" height="48" viewBox="0 0 48 48" fill="none" xmlns="http://www.w3.org/2000/svg">
<path fill-rule="evenodd" clip-rule="evenodd" d="M39.7071 26.2929C40.0976 26.6834 40.0976 27.3166 39.7071 27.7071L29.7071 39.7071C29.3166 40.0976 28.6834 40.0976 28.2929 39.7071L22.2929 33.7071C21.9024 33.3166 21.9024 32.6834 22.2929 32.2929C22.6834 31.9024 23.3166 31.9024 23.7071 32.2929L29 37.5858L38.2929 26.2929C38.6834 25.9024 39.3166 25.9024 39.7071 26.2929Z" fill="#27099D"/>
<path fill-rule="evenodd" clip-rule="evenodd" d="M22 22C25.3137 22 28 19.3137 28 16C28 12.6863 25.3137 10 22 10C18.6863 10 16 12.6863 16 16C16 19.3137 18.6863 22 22 22ZM22 24C26.4183 24 30 20.4183 30 16C30 11.5817 26.4183 8 22 8C17.5817 8 14 11.5817 14 16C14 20.4183 17.5817 24 22 24Z" fill="#27099D"/>
<path d="M9.0435 40C9.58136 40 10 39.5379 10 39C10 33.2617 14.3939 28.5497 20.0007 28.0448C20.5508 27.9952 21 27.5523 21 27C21 26.4477 20.5507 25.996 20 26.0379C13.2876 26.5485 8 32.1568 8 39C8 39.0269 8.00008 39.0537 8.00024 39.0806C8.0034 39.5998 8.43904 40 8.95827 40H9.0435Z" fill="#27099D"/>
</svg>
