<svg width="48" height="48" viewBox="0 0 48 48" fill="none" xmlns="http://www.w3.org/2000/svg">
<path fill-rule="evenodd" clip-rule="evenodd" d="M24 7C14.6112 7 7 14.6112 7 24C7 33.3888 14.6112 41 24 41C33.3888 41 41 33.3888 41 24C41 14.6112 33.3888 7 24 7ZM9 24C9 15.7157 15.7157 9 24 9C32.2843 9 39 15.7157 39 24C39 27.9861 37.4452 31.609 34.909 34.2954C32.051 31.6305 28.216 30 24.0001 30C19.7842 30 15.9491 31.6306 13.0911 34.2955C10.5548 31.6091 9 27.9861 9 24ZM14.5621 35.6594C17.1397 37.7484 20.4237 39 24 39C27.5763 39 30.8604 37.7484 33.4379 35.6593C30.9489 33.3863 27.6364 32 24.0001 32C20.3637 32 17.0512 33.3864 14.5621 35.6594ZM24.0001 28C28.4184 28 32.0001 24.4183 32.0001 20C32.0001 15.5817 28.4184 12 24.0001 12C19.5818 12 16.0001 15.5817 16.0001 20C16.0001 24.4183 19.5818 28 24.0001 28ZM24.0001 26C27.3138 26 30.0001 23.3137 30.0001 20C30.0001 16.6863 27.3138 14 24.0001 14C20.6864 14 18.0001 16.6863 18.0001 20C18.0001 23.3137 20.6864 26 24.0001 26Z" fill="#12A200"/>
</svg>
