<svg width="64" height="64" viewBox="0 0 64 64" fill="none" xmlns="http://www.w3.org/2000/svg">
<rect width="64" height="64" rx="32" fill="#1A73E8"/>
<path fill-rule="evenodd" clip-rule="evenodd" d="M17.9998 34L17.9998 24C17.9998 23.4477 18.4475 23 18.9998 23L40.5856 23L37.2927 26.2929C36.9022 26.6834 36.9022 27.3166 37.2927 27.7071C37.6832 28.0977 38.3164 28.0977 38.7069 27.7071L43.7069 22.7071C44.0974 22.3166 44.0974 21.6834 43.7069 21.2929L38.7069 16.2929C38.3164 15.9024 37.6832 15.9024 37.2927 16.2929C36.9022 16.6834 36.9022 17.3166 37.2927 17.7071L40.5856 21L18.9998 21C17.343 21 15.9998 22.3432 15.9998 24V34C15.9998 34.5523 16.4475 35 16.9998 35C17.5521 35 17.9998 34.5523 17.9998 34ZM46.9998 29C46.4475 29 45.9998 29.4477 45.9998 30V40C45.9998 40.5523 45.5521 41 44.9998 41H23.414L26.7069 37.7071C27.0974 37.3166 27.0974 36.6834 26.7069 36.2929C26.3164 35.9024 25.6832 35.9024 25.2927 36.2929L20.2927 41.2929C19.9022 41.6834 19.9022 42.3166 20.2927 42.7071L25.2927 47.7071C25.6832 48.0977 26.3164 48.0977 26.7069 47.7071C27.0974 47.3166 27.0974 46.6834 26.7069 46.2929L23.414 43H44.9998C46.6567 43 47.9998 41.6569 47.9998 40V30C47.9998 29.4477 47.5521 29 46.9998 29Z" fill="white"/>
</svg>
