<svg width="64" height="64" viewBox="0 0 64 64" fill="none" xmlns="http://www.w3.org/2000/svg">
<rect width="64" height="64" rx="32" fill="#FF6B00"/>
<path d="M35.7194 46.5055C35.8074 46.3535 35.9363 46.2293 36.106 46.1331C36.2757 46.0369 36.469 45.9889 36.6859 45.9889C36.9185 45.9889 37.1275 46.0432 37.3129 46.1518C37.4984 46.2604 37.6445 46.414 37.7514 46.6126C37.8583 46.808 37.9117 47.0361 37.9117 47.2968C37.9117 47.5543 37.8583 47.7839 37.7514 47.9856C37.6445 48.1873 37.4968 48.344 37.3082 48.4557C37.1228 48.5674 36.9154 48.6233 36.6859 48.6233C36.4628 48.6233 36.2663 48.5752 36.0966 48.479C35.93 48.3828 35.8043 48.2602 35.7194 48.1113V48.3669C35.7194 48.4854 35.6234 48.5814 35.5049 48.5814C35.3864 48.5814 35.2904 48.4854 35.2904 48.3669V45.3516C35.2904 45.2331 35.3864 45.1371 35.5049 45.1371C35.6234 45.1371 35.7194 45.2331 35.7194 45.3516V46.5055ZM37.4732 47.2968C37.4732 47.1044 37.434 46.9368 37.3554 46.7941C37.2768 46.6513 37.1699 46.5427 37.0348 46.4683C36.9028 46.3938 36.7566 46.3566 36.5963 46.3566C36.4392 46.3566 36.293 46.3953 36.1579 46.4729C36.0259 46.5474 35.919 46.6575 35.8373 46.8034C35.7587 46.9461 35.7194 47.1121 35.7194 47.3014C35.7194 47.4938 35.7587 47.6629 35.8373 47.8088C35.919 47.9515 36.0259 48.0616 36.1579 48.1392C36.293 48.2137 36.4392 48.2509 36.5963 48.2509C36.7566 48.2509 36.9028 48.2137 37.0348 48.1392C37.1699 48.0616 37.2768 47.9515 37.3554 47.8088C37.434 47.6629 37.4732 47.4922 37.4732 47.2968Z" fill="white"/>
<path d="M40.3976 46.0307C40.5424 46.0307 40.6406 46.1779 40.5852 46.3116L39.1983 49.6559C39.1665 49.7324 39.0919 49.7822 39.0091 49.7822C38.8632 49.7822 38.7642 49.634 38.82 49.4992L39.179 48.6329C39.2 48.582 39.2001 48.5249 39.1791 48.474L38.2948 46.333C38.2353 46.189 38.3412 46.0307 38.497 46.0307C38.587 46.0307 38.6677 46.0858 38.7006 46.1696L39.457 48.0973L40.2082 46.1604C40.2385 46.0822 40.3137 46.0307 40.3976 46.0307Z" fill="white"/>
<path d="M42.4929 45.1371C42.7295 45.1371 42.9213 45.3289 42.9213 45.5655V48.1926C42.9213 48.4292 42.7295 48.621 42.4929 48.621C42.2564 48.621 42.0646 48.4292 42.0646 48.1926V45.5655C42.0646 45.3289 42.2564 45.1371 42.4929 45.1371Z" fill="white"/>
<path d="M47.4246 45.1371C47.7569 45.1371 48.0262 45.4064 48.0262 45.7387V48.1926C48.0262 48.4292 47.8344 48.621 47.5979 48.621C47.3613 48.621 47.1695 48.4292 47.1695 48.1926V46.5316L46.5048 48.2972C46.4315 48.492 46.2451 48.621 46.037 48.621C45.8291 48.621 45.6429 48.4923 45.5694 48.2978L44.8999 46.5267V48.1926C44.8999 48.4292 44.7081 48.621 44.4715 48.621C44.235 48.621 44.0432 48.4292 44.0432 48.1926V45.7426C44.0432 45.4082 44.3143 45.1371 44.6487 45.1371C44.8946 45.1371 45.1161 45.2857 45.2092 45.5133L46.0422 47.549L46.867 45.5128C46.959 45.2857 47.1796 45.1371 47.4246 45.1371Z" fill="white"/>
<path d="M49.5717 45.1371C49.8083 45.1371 50.0001 45.3289 50.0001 45.5655V48.1926C50.0001 48.4292 49.8083 48.621 49.5717 48.621C49.3351 48.621 49.1433 48.4292 49.1433 48.1926V45.5655C49.1433 45.3289 49.3351 45.1371 49.5717 45.1371Z" fill="white"/>
<path d="M14.9739 40.6378L14.975 40.6393C15.8729 41.8709 17.054 42.5296 18.489 42.5296C19.665 42.5296 20.9932 42.1092 22.4548 41.3369C22.6214 41.2509 22.8012 41.1537 22.9943 41.0455L22.9792 41.0717C21.713 43.2512 20.9458 44.5925 20.6887 45.078C20.4889 45.4121 20.2546 45.9568 20.248 46.5174C20.2445 46.8123 20.3042 47.1417 20.4974 47.4412C20.6949 47.7473 20.9977 47.9692 21.3852 48.0987C22.0997 48.3375 22.7097 48.2388 23.1759 47.9679C23.6122 47.7144 23.8859 47.3323 24.0143 47.0296C25.0745 44.7358 26.2302 42.6097 27.4809 40.6505L27.4817 40.6492C28.5842 38.9121 29.3815 37.7534 29.8833 37.1465L29.886 37.1433L29.8887 37.14C30.4095 36.4915 30.79 35.8357 30.79 35.2242C30.79 34.7451 30.6398 34.3072 30.321 33.951L30.3183 33.948L30.3156 33.9451C30.0311 33.6357 29.6583 33.4822 29.2445 33.4822C28.8979 33.4822 28.5585 33.6346 28.2575 33.8218C27.9437 34.0171 27.6006 34.2957 27.2311 34.6428C26.4234 35.3993 25.0539 36.4257 23.0972 37.7277C21.5599 38.7478 20.359 39.1915 19.4627 39.1915C18.8913 39.1915 18.4521 38.9776 18.0964 38.5237C17.8201 38.1699 17.7022 37.8243 17.7022 37.4746C17.7022 36.3537 18.1637 34.8309 19.175 32.8737C20.3311 30.6505 21.7785 28.4913 23.5194 26.3962C26.2228 23.1526 28.9489 20.6483 31.6944 18.8687C33.02 18.0191 33.9685 17.6714 34.5883 17.6714C34.8268 17.6714 34.991 17.7311 35.1146 17.823C35.223 17.9057 35.2619 17.9873 35.2619 18.1173C35.2619 18.5818 35.0965 19.1874 34.7004 19.9524C34.3071 20.7121 33.706 21.5917 32.8839 22.5936L32.883 22.5947L32.882 22.5959C31.8483 23.8686 30.4985 25.1271 28.8233 26.3686L28.8215 26.3699L28.8197 26.3713C28.4661 26.6375 28.1724 26.904 27.962 27.1724C27.7565 27.4346 27.5859 27.7558 27.5859 28.1189C27.5859 28.5964 27.8161 28.986 28.1704 29.2712L28.1804 29.2793L28.1908 29.2869C28.4943 29.5104 28.8412 29.6526 29.2219 29.6526C29.9045 29.6526 30.6497 29.3257 31.4252 28.8077C32.2152 28.28 33.1093 27.5041 34.1049 26.4963C36.7258 23.8434 38.1264 21.1936 38.1264 18.5549C38.1264 17.6356 37.8512 16.8142 37.2932 16.1185L37.2923 16.1174L37.2914 16.1163C36.5597 15.213 35.5902 14.75 34.4298 14.75C32.2853 14.75 29.8231 15.8884 27.0724 17.9978C23.7033 20.5767 20.7416 23.6478 18.1876 27.2083L18.1868 27.2094C15.4393 31.0581 14 34.5153 14 37.5579C14 38.705 14.3227 39.7389 14.9739 40.6378Z" fill="white"/>
<path d="M41.3754 32.9768L41.3894 32.9563L41.4016 32.9347C41.5813 32.6173 41.7653 32.2919 41.9558 31.9553C43.2656 29.6398 44.8747 26.7951 47.4008 22.399C47.8596 21.6037 48.2122 20.9208 48.4518 20.3549C48.6837 19.8071 48.8387 19.3041 48.8387 18.8926C48.8387 18.5062 48.7255 18.1468 48.4988 17.8339C48.1961 17.416 47.7532 17.2131 47.248 17.2131C46.4377 17.2131 45.8509 17.7266 45.4599 18.4579L37.8166 31.8121C37.376 32.5131 37.0749 33.1761 37.0749 33.7448C37.0749 34.1867 37.2191 34.5928 37.4831 34.9499C37.7844 35.3725 38.209 35.6744 38.7562 35.6744C39.5238 35.6744 40.0844 35.0652 40.4935 34.3557L40.501 34.3427L40.5079 34.3293C40.6084 34.1328 40.8876 33.6922 41.3754 32.9768Z" fill="white"/>
<path d="M36.5824 36.4619C37.107 36.4619 37.5491 36.6923 37.8782 37.0946C38.1327 37.4005 38.2411 37.7719 38.2411 38.1622C38.2411 38.9367 38.0082 39.7214 37.581 40.5083C37.1062 41.3969 36.4005 41.9671 35.4503 41.9671C35.0058 41.9671 34.5646 41.8503 34.2411 41.5138C33.9216 41.1814 33.8143 40.7352 33.8143 40.2875C33.8143 39.4262 34.1034 38.5794 34.6337 37.7559C35.1198 37.0001 35.7606 36.4619 36.5824 36.4619Z" fill="white"/>
<mask id="mask0_172_11788" style="mask-type:alpha" maskUnits="userSpaceOnUse" x="14" y="14" width="35" height="35">
<path d="M14.9739 40.6378L14.975 40.6393C15.8729 41.8709 17.054 42.5296 18.489 42.5296C19.665 42.5296 20.9932 42.1092 22.4548 41.3369C22.6214 41.2509 22.8012 41.1537 22.9943 41.0455L22.9792 41.0717C21.713 43.2512 20.9458 44.5925 20.6887 45.078C20.4889 45.4121 20.2546 45.9568 20.248 46.5174C20.2445 46.8123 20.3042 47.1417 20.4974 47.4412C20.6949 47.7473 20.9977 47.9692 21.3852 48.0987C22.0997 48.3375 22.7097 48.2388 23.1759 47.9679C23.6122 47.7144 23.8859 47.3323 24.0143 47.0296C25.0745 44.7358 26.2302 42.6097 27.4809 40.6505L27.4817 40.6492C28.5842 38.9121 29.3815 37.7534 29.8833 37.1465L29.886 37.1433L29.8887 37.14C30.4095 36.4915 30.79 35.8357 30.79 35.2242C30.79 34.7451 30.6398 34.3072 30.321 33.951L30.3183 33.948L30.3156 33.9451C30.0311 33.6357 29.6583 33.4822 29.2445 33.4822C28.8979 33.4822 28.5585 33.6346 28.2575 33.8218C27.9437 34.0171 27.6006 34.2957 27.2311 34.6428C26.4234 35.3993 25.0539 36.4257 23.0972 37.7277C21.5599 38.7478 20.359 39.1915 19.4627 39.1915C18.8913 39.1915 18.4521 38.9776 18.0964 38.5237C17.8201 38.1699 17.7022 37.8243 17.7022 37.4746C17.7022 36.3537 18.1637 34.8309 19.175 32.8737C20.3311 30.6505 21.7785 28.4913 23.5194 26.3962C26.2228 23.1526 28.9489 20.6483 31.6944 18.8687C33.02 18.0191 33.9685 17.6714 34.5883 17.6714C34.8268 17.6714 34.991 17.7311 35.1146 17.823C35.223 17.9057 35.2619 17.9873 35.2619 18.1173C35.2619 18.5818 35.0965 19.1874 34.7004 19.9524C34.3071 20.7121 33.706 21.5917 32.8839 22.5936L32.883 22.5947L32.882 22.5959C31.8483 23.8686 30.4985 25.1271 28.8233 26.3686L28.8215 26.3699L28.8197 26.3713C28.4661 26.6375 28.1724 26.904 27.962 27.1724C27.7565 27.4346 27.5859 27.7558 27.5859 28.1189C27.5859 28.5964 27.8161 28.986 28.1704 29.2712L28.1804 29.2793L28.1908 29.2869C28.4943 29.5104 28.8412 29.6526 29.2219 29.6526C29.9045 29.6526 30.6497 29.3257 31.4252 28.8077C32.2152 28.28 33.1093 27.5041 34.1049 26.4963C36.7258 23.8434 38.1264 21.1936 38.1264 18.5549C38.1264 17.6356 37.8512 16.8142 37.2932 16.1185L37.2923 16.1174L37.2914 16.1163C36.5597 15.213 35.5902 14.75 34.4298 14.75C32.2853 14.75 29.8231 15.8884 27.0724 17.9978C23.7033 20.5767 20.7416 23.6478 18.1876 27.2083L18.1868 27.2094C15.4393 31.0581 14 34.5153 14 37.5579C14 38.705 14.3227 39.7389 14.9739 40.6378Z" fill="white"/>
<path d="M41.3754 32.9768L41.3894 32.9563L41.4016 32.9347C41.5813 32.6173 41.7653 32.2919 41.9558 31.9553C43.2656 29.6398 44.8747 26.7951 47.4008 22.399C47.8596 21.6037 48.2122 20.9208 48.4518 20.3549C48.6837 19.8071 48.8387 19.3041 48.8387 18.8926C48.8387 18.5062 48.7255 18.1468 48.4988 17.8339C48.1961 17.416 47.7532 17.2131 47.248 17.2131C46.4377 17.2131 45.8509 17.7266 45.4599 18.4579L37.8166 31.8121C37.376 32.5131 37.0749 33.1761 37.0749 33.7448C37.0749 34.1867 37.2191 34.5928 37.4831 34.9499C37.7844 35.3725 38.209 35.6744 38.7562 35.6744C39.5238 35.6744 40.0844 35.0652 40.4935 34.3557L40.501 34.3427L40.5079 34.3293C40.6084 34.1328 40.8876 33.6922 41.3754 32.9768Z" fill="white"/>
<path d="M36.5824 36.4619C37.107 36.4619 37.5491 36.6923 37.8782 37.0946C38.1327 37.4005 38.2411 37.7719 38.2411 38.1622C38.2411 38.9367 38.0082 39.7214 37.581 40.5083C37.1062 41.3969 36.4005 41.9671 35.4503 41.9671C35.0058 41.9671 34.5646 41.8503 34.2411 41.5138C33.9216 41.1814 33.8143 40.7352 33.8143 40.2875C33.8143 39.4262 34.1034 38.5794 34.6337 37.7559C35.1198 37.0001 35.7606 36.4619 36.5824 36.4619Z" fill="white"/>
</mask>
<g mask="url(#mask0_172_11788)">
<path d="M29.6775 37.5887C30.1983 36.9403 30.79 35.8357 30.79 35.2242C30.79 34.7451 30.6398 34.3072 30.321 33.951L30.3184 33.948L30.3156 33.9451C30.0311 33.6357 29.6583 33.4822 29.2446 33.4822C28.8979 33.4822 28.5586 33.6345 28.2576 33.8218C27.9437 34.0171 27.3373 34.4351 26.9678 34.7823M34.4299 14.75C35.5902 14.75 36.5597 15.213 37.2915 16.1163L37.2924 16.1174L37.2933 16.1185C37.8513 16.8142 38.1264 17.6356 38.1264 18.5549C38.1292 19.1253 37.9665 20.6532 37.2933 22.2016M43.5162 29.1694C43.9751 28.374 48.2121 20.7352 48.4517 20.1694C48.6836 19.6216 48.742 19.3228 48.742 18.9113C48.742 18.5249 48.6783 18.1596 48.4517 17.8468C48.1489 17.4289 47.7956 17.2661 47.2904 17.2661C46.4801 17.2661 45.8427 17.7929 45.4517 18.5242M35.4839 36.7177C36.8388 36.1371 37.5492 36.6923 37.8783 37.0946C38.1327 37.4005 38.2904 37.9758 38.2904 38.5564" stroke="white" stroke-linecap="round" stroke-linejoin="round"/>
</g>
</svg>
