<svg width="64" height="64" viewBox="0 0 64 64" fill="none" xmlns="http://www.w3.org/2000/svg">
<rect width="64" height="64" rx="32" fill="#1AC3E8"/>
<path fill-rule="evenodd" clip-rule="evenodd" d="M32 15C22.6112 15 15 22.6112 15 32C15 41.3888 22.6112 49 32 49C41.3888 49 49 41.3888 49 32C49 22.6112 41.3888 15 32 15ZM17 32C17 23.7157 23.7157 17 32 17C40.2843 17 47 23.7157 47 32C47 35.9861 45.4452 39.609 42.909 42.2954C40.051 39.6305 36.216 38 32.0001 38C27.7842 38 23.9491 39.6306 21.0911 42.2955C18.5548 39.6091 17 35.9861 17 32ZM22.5621 43.6594C25.1397 45.7484 28.4237 47 32 47C35.5763 47 38.8604 45.7484 41.4379 43.6593C38.9489 41.3863 35.6364 40 32.0001 40C28.3637 40 25.0512 41.3864 22.5621 43.6594ZM32.0001 36C36.4184 36 40.0001 32.4183 40.0001 28C40.0001 23.5817 36.4184 20 32.0001 20C27.5818 20 24.0001 23.5817 24.0001 28C24.0001 32.4183 27.5818 36 32.0001 36ZM32.0001 34C35.3138 34 38.0001 31.3137 38.0001 28C38.0001 24.6863 35.3138 22 32.0001 22C28.6864 22 26.0001 24.6863 26.0001 28C26.0001 31.3137 28.6864 34 32.0001 34Z" fill="white"/>
</svg>
