<svg width="64" height="64" viewBox="0 0 64 64" fill="none" xmlns="http://www.w3.org/2000/svg">
<rect width="64" height="64" rx="32" fill="#12A200"/>
<path fill-rule="evenodd" clip-rule="evenodd" d="M47.7071 34.2929C48.0976 34.6834 48.0976 35.3166 47.7071 35.7071L37.7071 47.7071C37.3166 48.0976 36.6834 48.0976 36.2929 47.7071L30.2929 41.7071C29.9024 41.3166 29.9024 40.6834 30.2929 40.2929C30.6834 39.9024 31.3166 39.9024 31.7071 40.2929L37 45.5858L46.2929 34.2929C46.6834 33.9024 47.3166 33.9024 47.7071 34.2929Z" fill="white"/>
<path fill-rule="evenodd" clip-rule="evenodd" d="M30 30C33.3137 30 36 27.3137 36 24C36 20.6863 33.3137 18 30 18C26.6863 18 24 20.6863 24 24C24 27.3137 26.6863 30 30 30ZM30 32C34.4183 32 38 28.4183 38 24C38 19.5817 34.4183 16 30 16C25.5817 16 22 19.5817 22 24C22 28.4183 25.5817 32 30 32Z" fill="white"/>
<path d="M17.0435 48C17.5814 48 18 47.5379 18 47C18 41.2617 22.3939 36.5497 28.0007 36.0448C28.5508 35.9952 29 35.5523 29 35C29 34.4477 28.5507 33.996 28 34.0379C21.2876 34.5485 16 40.1568 16 47C16 47.0269 16.0001 47.0537 16.0002 47.0806C16.0034 47.5998 16.439 48 16.9583 48H17.0435Z" fill="white"/>
</svg>
