<svg width="48" height="48" viewBox="0 0 48 48" fill="none" xmlns="http://www.w3.org/2000/svg">
<path fill-rule="evenodd" clip-rule="evenodd" d="M15.5993 12.7995C17.6897 11.2289 20.233 10.2302 23.0001 10.0351V18C23.0001 18.5523 23.4478 19 24.0001 19C24.5523 19 25.0001 18.5523 25.0001 18V10.0351C27.7671 10.2302 30.3104 11.2289 32.4008 12.7995C32.8424 13.1312 33.4693 13.0422 33.801 12.6007C34.1328 12.1591 34.0437 11.5322 33.6022 11.2005C30.9277 9.19112 27.6015 8 24.0001 8C20.3986 8 17.0724 9.19112 14.3979 11.2005C13.9564 11.5322 13.8674 12.1591 14.1991 12.6007C14.5308 13.0422 15.1577 13.1312 15.5993 12.7995ZM15.5993 35.2005C15.1577 34.8688 14.5308 34.9578 14.1991 35.3993C13.8674 35.8409 13.9564 36.4678 14.3979 36.7995C17.0724 38.8089 20.3986 40 24.0001 40C27.6015 40 30.9277 38.8089 33.6022 36.7995C34.0437 36.4678 34.1328 35.8409 33.801 35.3993C33.4693 34.9578 32.8424 34.8688 32.4008 35.2005C30.3104 36.7711 27.7671 37.7698 25.0001 37.9649V34C25.0001 33.4477 24.5523 33 24.0001 33C23.4478 33 23.0001 33.4477 23.0001 34V37.9649C20.233 37.7698 17.6897 36.7711 15.5993 35.2005ZM9 14C8.44772 14 8 14.4477 8 15V32C8 32.5523 8.44772 33 9 33H19C19.5523 33 20 32.5523 20 32V27.4142L23.2929 30.7071C23.6834 31.0976 24.3166 31.0976 24.7071 30.7071L28 27.4142V32C28 32.5523 28.4477 33 29 33H39C39.5523 33 40 32.5523 40 32V15C40 14.4477 39.5523 14 39 14H34C33.7348 14 33.4804 14.1054 33.2929 14.2929L24 22.5858L14.7071 14.2929C14.5196 14.1054 14.2652 14 14 14H9ZM10 31V16H13V31H10ZM23.2929 24.7071L15 17.4142V31H18V25C18 24.5955 18.2436 24.2309 18.6173 24.0761C18.991 23.9213 19.4211 24.0069 19.7071 24.2929L24 28.5858L28.2929 24.2929C28.5789 24.0069 29.009 23.9213 29.3827 24.0761C29.7564 24.2309 30 24.5955 30 25V31H33V17.4142L24.7071 24.7071C24.3166 25.0976 23.6834 25.0976 23.2929 24.7071ZM38 31H35V16H38V31Z" fill="#FF6B00"/>
</svg>
