<svg width="48" height="48" viewBox="0 0 48 48" fill="none" xmlns="http://www.w3.org/2000/svg">
<path d="M27.7194 38.5055C27.8074 38.3535 27.9363 38.2293 28.106 38.1331C28.2757 38.0369 28.469 37.9889 28.6859 37.9889C28.9185 37.9889 29.1275 38.0432 29.3129 38.1518C29.4984 38.2604 29.6445 38.414 29.7514 38.6126C29.8583 38.808 29.9117 39.0361 29.9117 39.2968C29.9117 39.5543 29.8583 39.7839 29.7514 39.9856C29.6445 40.1873 29.4968 40.344 29.3082 40.4557C29.1228 40.5674 28.9154 40.6233 28.6859 40.6233C28.4628 40.6233 28.2663 40.5752 28.0966 40.479C27.93 40.3828 27.8043 40.2602 27.7194 40.1113V40.3669C27.7194 40.4854 27.6234 40.5814 27.5049 40.5814C27.3864 40.5814 27.2904 40.4854 27.2904 40.3669V37.3516C27.2904 37.2331 27.3864 37.1371 27.5049 37.1371C27.6234 37.1371 27.7194 37.2331 27.7194 37.3516V38.5055ZM29.4732 39.2968C29.4732 39.1044 29.434 38.9368 29.3554 38.7941C29.2768 38.6513 29.1699 38.5427 29.0348 38.4683C28.9028 38.3938 28.7566 38.3566 28.5963 38.3566C28.4392 38.3566 28.293 38.3953 28.1579 38.4729C28.0259 38.5474 27.919 38.6575 27.8373 38.8034C27.7587 38.9461 27.7194 39.1121 27.7194 39.3014C27.7194 39.4938 27.7587 39.6629 27.8373 39.8088C27.919 39.9515 28.0259 40.0616 28.1579 40.1392C28.293 40.2137 28.4392 40.2509 28.5963 40.2509C28.7566 40.2509 28.9028 40.2137 29.0348 40.1392C29.1699 40.0616 29.2768 39.9515 29.3554 39.8088C29.434 39.6629 29.4732 39.4922 29.4732 39.2968Z" fill="#FF6B00"/>
<path d="M32.3976 38.0307C32.5424 38.0307 32.6406 38.1779 32.5852 38.3116L31.1983 41.6559C31.1665 41.7324 31.0919 41.7822 31.0091 41.7822C30.8632 41.7822 30.7642 41.634 30.82 41.4992L31.179 40.6329C31.2 40.582 31.2001 40.5249 31.1791 40.474L30.2948 38.333C30.2353 38.189 30.3412 38.0307 30.497 38.0307C30.587 38.0307 30.6677 38.0858 30.7006 38.1696L31.457 40.0973L32.2082 38.1604C32.2385 38.0822 32.3137 38.0307 32.3976 38.0307Z" fill="#FF6B00"/>
<path d="M34.4929 37.1371C34.7295 37.1371 34.9213 37.3289 34.9213 37.5655V40.1926C34.9213 40.4292 34.7295 40.621 34.4929 40.621C34.2564 40.621 34.0646 40.4292 34.0646 40.1926V37.5655C34.0646 37.3289 34.2564 37.1371 34.4929 37.1371Z" fill="#FF6B00"/>
<path d="M39.4246 37.1371C39.7569 37.1371 40.0262 37.4064 40.0262 37.7387V40.1926C40.0262 40.4292 39.8344 40.621 39.5979 40.621C39.3613 40.621 39.1695 40.4292 39.1695 40.1926V38.5316L38.5048 40.2972C38.4315 40.492 38.2451 40.621 38.037 40.621C37.8291 40.621 37.6429 40.4923 37.5694 40.2978L36.8999 38.5267V40.1926C36.8999 40.4292 36.7081 40.621 36.4715 40.621C36.235 40.621 36.0432 40.4292 36.0432 40.1926V37.7426C36.0432 37.4082 36.3143 37.1371 36.6487 37.1371C36.8946 37.1371 37.1161 37.2857 37.2092 37.5133L38.0422 39.549L38.867 37.5128C38.959 37.2857 39.1796 37.1371 39.4246 37.1371Z" fill="#FF6B00"/>
<path d="M41.5717 37.1371C41.8083 37.1371 42.0001 37.3289 42.0001 37.5655V40.1926C42.0001 40.4292 41.8083 40.621 41.5717 40.621C41.3351 40.621 41.1433 40.4292 41.1433 40.1926V37.5655C41.1433 37.3289 41.3351 37.1371 41.5717 37.1371Z" fill="#FF6B00"/>
<path d="M6.97393 32.6378L6.97498 32.6393C7.87288 33.8709 9.05398 34.5296 10.489 34.5296C11.665 34.5296 12.9932 34.1092 14.4548 33.3369C14.6214 33.2509 14.8012 33.1537 14.9943 33.0455L14.9792 33.0717C13.713 35.2512 12.9458 36.5925 12.6887 37.078C12.4889 37.4121 12.2546 37.9568 12.248 38.5174C12.2445 38.8123 12.3042 39.1417 12.4974 39.4412C12.6949 39.7473 12.9977 39.9692 13.3852 40.0987C14.0997 40.3375 14.7097 40.2388 15.1759 39.9679C15.6122 39.7144 15.8859 39.3323 16.0143 39.0296C17.0745 36.7358 18.2302 34.6097 19.4809 32.6505L19.4817 32.6492C20.5842 30.9121 21.3815 29.7534 21.8833 29.1465L21.886 29.1433L21.8887 29.14C22.4095 28.4915 22.79 27.8357 22.79 27.2242C22.79 26.7451 22.6398 26.3072 22.321 25.951L22.3183 25.948L22.3156 25.9451C22.0311 25.6357 21.6583 25.4822 21.2445 25.4822C20.8979 25.4822 20.5585 25.6346 20.2575 25.8218C19.9437 26.0171 19.6006 26.2957 19.2311 26.6428C18.4234 27.3993 17.0539 28.4257 15.0972 29.7277C13.5599 30.7478 12.359 31.1915 11.4627 31.1915C10.8913 31.1915 10.4521 30.9776 10.0964 30.5237C9.82014 30.1699 9.70225 29.8243 9.70225 29.4746C9.70225 28.3536 10.1637 26.8309 11.175 24.8737C12.3311 22.6505 13.7785 20.4913 15.5194 18.3962C18.2228 15.1526 20.9489 12.6483 23.6944 10.8687C25.02 10.0191 25.9685 9.67145 26.5883 9.67145C26.8268 9.67145 26.991 9.73113 27.1146 9.82299C27.223 9.90567 27.2619 9.98731 27.2619 10.1173C27.2619 10.5818 27.0965 11.1874 26.7004 11.9524C26.3071 12.7121 25.706 13.5917 24.8839 14.5936L24.883 14.5947L24.882 14.5959C23.8483 15.8686 22.4985 17.1271 20.8233 18.3686L20.8215 18.3699L20.8197 18.3713C20.4661 18.6375 20.1724 18.904 19.962 19.1724C19.7565 19.4346 19.5859 19.7558 19.5859 20.1189C19.5859 20.5964 19.8161 20.986 20.1704 21.2712L20.1804 21.2793L20.1908 21.2869C20.4943 21.5104 20.8412 21.6526 21.2219 21.6526C21.9045 21.6526 22.6497 21.3257 23.4252 20.8077C24.2152 20.28 25.1093 19.5041 26.1049 18.4963C28.7258 15.8434 30.1264 13.1936 30.1264 10.5549C30.1264 9.63562 29.8512 8.81419 29.2932 8.11851L29.2923 8.11739L29.2914 8.11626C28.5597 7.21299 27.5902 6.75 26.4298 6.75C24.2853 6.75 21.8231 7.88843 19.0724 9.99778C15.7033 12.5767 12.7416 15.6478 10.1876 19.2083L10.1868 19.2094C7.43933 23.0581 6 26.5153 6 29.5579C6 30.705 6.32268 31.7389 6.97393 32.6378Z" fill="#FF6B00"/>
<path d="M33.3754 24.9768L33.3894 24.9563L33.4016 24.9347C33.5813 24.6173 33.7653 24.2919 33.9558 23.9553C35.2656 21.6398 36.8747 18.7951 39.4008 14.399C39.8596 13.6037 40.2122 12.9208 40.4518 12.3549C40.6837 11.8071 40.8387 11.3041 40.8387 10.8926C40.8387 10.5062 40.7255 10.1468 40.4988 9.83388C40.1961 9.41601 39.7532 9.21309 39.248 9.21309C38.4377 9.21309 37.8509 9.72657 37.4599 10.4579L29.8166 23.8121C29.376 24.5131 29.0749 25.1761 29.0749 25.7448C29.0749 26.1867 29.2191 26.5928 29.4831 26.9499C29.7844 27.3725 30.209 27.6744 30.7562 27.6744C31.5238 27.6744 32.0844 27.0652 32.4935 26.3557L32.501 26.3427L32.5079 26.3293C32.6084 26.1328 32.8876 25.6922 33.3754 24.9768Z" fill="#FF6B00"/>
<path d="M28.5824 28.4619C29.107 28.4619 29.5491 28.6923 29.8782 29.0946C30.1327 29.4005 30.2411 29.7719 30.2411 30.1622C30.2411 30.9367 30.0082 31.7214 29.581 32.5083C29.1062 33.3969 28.4005 33.9671 27.4503 33.9671C27.0058 33.9671 26.5646 33.8503 26.2411 33.5138C25.9216 33.1814 25.8143 32.7352 25.8143 32.2875C25.8143 31.4262 26.1034 30.5794 26.6337 29.7559C27.1198 29.0001 27.7606 28.4619 28.5824 28.4619Z" fill="#FF6B00"/>
<mask id="mask0_175_23750" style="mask-type:alpha" maskUnits="userSpaceOnUse" x="6" y="6" width="35" height="35">
<path d="M6.97393 32.6378L6.97498 32.6393C7.87288 33.8709 9.05398 34.5296 10.489 34.5296C11.665 34.5296 12.9932 34.1092 14.4548 33.3369C14.6214 33.2509 14.8012 33.1537 14.9943 33.0455L14.9792 33.0717C13.713 35.2512 12.9458 36.5925 12.6887 37.078C12.4889 37.4121 12.2546 37.9568 12.248 38.5174C12.2445 38.8123 12.3042 39.1417 12.4974 39.4412C12.6949 39.7473 12.9977 39.9692 13.3852 40.0987C14.0997 40.3375 14.7097 40.2388 15.1759 39.9679C15.6122 39.7144 15.8859 39.3323 16.0143 39.0296C17.0745 36.7358 18.2302 34.6097 19.4809 32.6505L19.4817 32.6492C20.5842 30.9121 21.3815 29.7534 21.8833 29.1465L21.886 29.1433L21.8887 29.14C22.4095 28.4915 22.79 27.8357 22.79 27.2242C22.79 26.7451 22.6398 26.3072 22.321 25.951L22.3183 25.948L22.3156 25.9451C22.0311 25.6357 21.6583 25.4822 21.2445 25.4822C20.8979 25.4822 20.5585 25.6346 20.2575 25.8218C19.9437 26.0171 19.6006 26.2957 19.2311 26.6428C18.4234 27.3993 17.0539 28.4257 15.0972 29.7277C13.5599 30.7478 12.359 31.1915 11.4627 31.1915C10.8913 31.1915 10.4521 30.9776 10.0964 30.5237C9.82014 30.1699 9.70225 29.8243 9.70225 29.4746C9.70225 28.3536 10.1637 26.8309 11.175 24.8737C12.3311 22.6505 13.7785 20.4913 15.5194 18.3962C18.2228 15.1526 20.9489 12.6483 23.6944 10.8687C25.02 10.0191 25.9685 9.67145 26.5883 9.67145C26.8268 9.67145 26.991 9.73113 27.1146 9.82299C27.223 9.90567 27.2619 9.98731 27.2619 10.1173C27.2619 10.5818 27.0965 11.1874 26.7004 11.9524C26.3071 12.7121 25.706 13.5917 24.8839 14.5936L24.883 14.5947L24.882 14.5959C23.8483 15.8686 22.4985 17.1271 20.8233 18.3686L20.8215 18.3699L20.8197 18.3713C20.4661 18.6375 20.1724 18.904 19.962 19.1724C19.7565 19.4346 19.5859 19.7558 19.5859 20.1189C19.5859 20.5964 19.8161 20.986 20.1704 21.2712L20.1804 21.2793L20.1908 21.2869C20.4943 21.5104 20.8412 21.6526 21.2219 21.6526C21.9045 21.6526 22.6497 21.3257 23.4252 20.8077C24.2152 20.28 25.1093 19.5041 26.1049 18.4963C28.7258 15.8434 30.1264 13.1936 30.1264 10.5549C30.1264 9.63562 29.8512 8.81419 29.2932 8.11851L29.2923 8.11739L29.2914 8.11626C28.5597 7.21299 27.5902 6.75 26.4298 6.75C24.2853 6.75 21.8231 7.88843 19.0724 9.99778C15.7033 12.5767 12.7416 15.6478 10.1876 19.2083L10.1868 19.2094C7.43933 23.0581 6 26.5153 6 29.5579C6 30.705 6.32268 31.7389 6.97393 32.6378Z" fill="white"/>
<path d="M33.3754 24.9768L33.3894 24.9563L33.4016 24.9347C33.5813 24.6173 33.7653 24.2919 33.9558 23.9553C35.2656 21.6398 36.8747 18.7951 39.4008 14.399C39.8596 13.6037 40.2122 12.9208 40.4518 12.3549C40.6837 11.8071 40.8387 11.3041 40.8387 10.8926C40.8387 10.5062 40.7255 10.1468 40.4988 9.83388C40.1961 9.41601 39.7532 9.21309 39.248 9.21309C38.4377 9.21309 37.8509 9.72657 37.4599 10.4579L29.8166 23.8121C29.376 24.5131 29.0749 25.1761 29.0749 25.7448C29.0749 26.1867 29.2191 26.5928 29.4831 26.9499C29.7844 27.3725 30.209 27.6744 30.7562 27.6744C31.5238 27.6744 32.0844 27.0652 32.4935 26.3557L32.501 26.3427L32.5079 26.3293C32.6084 26.1328 32.8876 25.6922 33.3754 24.9768Z" fill="white"/>
<path d="M28.5824 28.4619C29.107 28.4619 29.5491 28.6923 29.8782 29.0946C30.1327 29.4005 30.2411 29.7719 30.2411 30.1622C30.2411 30.9367 30.0082 31.7214 29.581 32.5083C29.1062 33.3969 28.4005 33.9671 27.4503 33.9671C27.0058 33.9671 26.5646 33.8503 26.2411 33.5138C25.9216 33.1814 25.8143 32.7352 25.8143 32.2875C25.8143 31.4262 26.1034 30.5794 26.6337 29.7559C27.1198 29.0001 27.7606 28.4619 28.5824 28.4619Z" fill="white"/>
</mask>
<g mask="url(#mask0_175_23750)">
<path d="M21.6775 29.5887C22.1983 28.9403 22.79 27.8357 22.79 27.2242C22.79 26.7451 22.6398 26.3072 22.321 25.951L22.3184 25.948L22.3156 25.9451C22.0311 25.6357 21.6583 25.4822 21.2446 25.4822C20.8979 25.4822 20.5586 25.6345 20.2576 25.8218C19.9437 26.0171 19.3373 26.4351 18.9678 26.7823M26.4299 6.75C27.5902 6.75 28.5597 7.21299 29.2915 8.11626L29.2924 8.11738L29.2933 8.11851C29.8513 8.81419 30.1264 9.63562 30.1264 10.5549C30.1292 11.1253 29.9665 12.6532 29.2933 14.2016M35.5162 21.1694C35.9751 20.374 40.2121 12.7352 40.4517 12.1694C40.6836 11.6216 40.742 11.3228 40.742 10.9113C40.742 10.5249 40.6783 10.1596 40.4517 9.84677C40.1489 9.4289 39.7956 9.26613 39.2904 9.26613C38.4801 9.26613 37.8427 9.79286 37.4517 10.5242M27.4839 28.7177C28.8388 28.1371 29.5492 28.6923 29.8783 29.0946C30.1327 29.4005 30.2904 29.9758 30.2904 30.5564" stroke="#FF6B00" stroke-linecap="round" stroke-linejoin="round"/>
</g>
</svg>
