<svg width="40" height="43" viewBox="0 0 40 43" fill="none" xmlns="http://www.w3.org/2000/svg">
<path d="M0 10C0 4.47715 4.47715 0 10 0H30C35.5228 0 40 4.47715 40 10V30C40 35.5228 35.5228 40 30 40H10C4.47715 40 0 35.5228 0 30V10Z" fill="url(#paint0_radial_172_29634)"/>
<g filter="url(#filter0_d_172_29634)">
<path d="M23.0997 32.0879C23.173 31.9612 23.2804 31.8577 23.4219 31.7776C23.5633 31.6974 23.7244 31.6573 23.9051 31.6573C24.0989 31.6573 24.2731 31.7026 24.4276 31.7931C24.5822 31.8836 24.704 32.0116 24.793 32.1771C24.8821 32.34 24.9266 32.53 24.9266 32.7472C24.9266 32.9619 24.8821 33.1532 24.793 33.3213C24.704 33.4894 24.5809 33.62 24.4237 33.713C24.2692 33.8061 24.0963 33.8527 23.9051 33.8527C23.7191 33.8527 23.5554 33.8126 23.414 33.7324C23.2752 33.6523 23.1704 33.5501 23.0997 33.426V33.639C23.0997 33.7377 23.0197 33.8178 22.9209 33.8178C22.8222 33.8178 22.7422 33.7377 22.7422 33.639V31.1263C22.7422 31.0275 22.8222 30.9475 22.9209 30.9475C23.0197 30.9475 23.0997 31.0275 23.0997 31.1263V32.0879ZM24.5612 32.7472C24.5612 32.5869 24.5285 32.4473 24.463 32.3283C24.3975 32.2094 24.3085 32.1189 24.1958 32.0568C24.0858 31.9948 23.964 31.9637 23.8305 31.9637C23.6995 31.9637 23.5777 31.9961 23.4651 32.0607C23.3551 32.1228 23.266 32.2146 23.1979 32.3361C23.1324 32.455 23.0997 32.5934 23.0997 32.7511C23.0997 32.9114 23.1324 33.0524 23.1979 33.1739C23.266 33.2928 23.3551 33.3846 23.4651 33.4493C23.5777 33.5113 23.6995 33.5424 23.8305 33.5424C23.964 33.5424 24.0858 33.5113 24.1958 33.4493C24.3085 33.3846 24.3975 33.2928 24.463 33.1739C24.5285 33.0524 24.5612 32.9101 24.5612 32.7472Z" fill="white"/>
<path d="M26.9982 31.6922C27.1188 31.6922 27.2007 31.8149 27.1545 31.9263L25.9987 34.7132C25.9723 34.7769 25.9101 34.8185 25.8411 34.8185C25.7195 34.8185 25.637 34.6949 25.6835 34.5826L25.9827 33.8607C26.0002 33.8183 26.0002 33.7707 25.9827 33.7283L25.2458 31.9441C25.1963 31.8241 25.2845 31.6922 25.4143 31.6922C25.4893 31.6922 25.5566 31.7381 25.584 31.8079L26.2144 33.4144L26.8404 31.8003C26.8656 31.7351 26.9283 31.6922 26.9982 31.6922Z" fill="white"/>
<path d="M28.7443 30.9475C28.9415 30.9475 29.1013 31.1073 29.1013 31.3045V33.4938C29.1013 33.6909 28.9415 33.8507 28.7443 33.8507C28.5472 33.8507 28.3873 33.6909 28.3873 33.4938V31.3045C28.3873 31.1073 28.5472 30.9475 28.7443 30.9475Z" fill="white"/>
<path d="M32.854 30.9475C33.1309 30.9475 33.3554 31.172 33.3554 31.4489V33.4938C33.3554 33.6909 33.1956 33.8507 32.9984 33.8507C32.8013 33.8507 32.6414 33.6909 32.6414 33.4938V32.1096L32.0875 33.5809C32.0264 33.7433 31.8711 33.8507 31.6977 33.8507C31.5244 33.8507 31.3692 33.7435 31.308 33.5814L30.7501 32.1055V33.4938C30.7501 33.6909 30.5903 33.8507 30.3931 33.8507C30.196 33.8507 30.0362 33.6909 30.0362 33.4938V31.4521C30.0362 31.1734 30.2621 30.9475 30.5408 30.9475C30.7457 30.9475 30.9302 31.0714 31.0078 31.261L31.702 32.9574L32.3893 31.2606C32.466 31.0714 32.6498 30.9475 32.854 30.9475Z" fill="white"/>
<path d="M34.6433 30.9475C34.8404 30.9475 35.0002 31.1073 35.0002 31.3045V33.4938C35.0002 33.6909 34.8404 33.8507 34.6433 33.8507C34.4461 33.8507 34.2863 33.6909 34.2863 33.4938V31.3045C34.2863 31.1073 34.4461 30.9475 34.6433 30.9475Z" fill="white"/>
</g>
<g filter="url(#filter1_d_172_29634)">
<path d="M5.8116 27.1982L5.81248 27.1994C6.56073 28.2257 7.54498 28.7747 8.74087 28.7747C9.7208 28.7747 10.8277 28.4244 12.0456 27.7808C12.1845 27.7091 12.3344 27.6281 12.4952 27.5379L12.4826 27.5598C11.4275 29.376 10.7881 30.4938 10.5739 30.8983C10.4074 31.1768 10.2121 31.6307 10.2067 32.0978C10.2038 32.3436 10.2535 32.6181 10.4145 32.8677C10.5791 33.1227 10.8314 33.3076 11.1543 33.4156C11.7497 33.6145 12.2581 33.5323 12.6466 33.3066C13.0102 33.0954 13.2382 32.7769 13.3453 32.5246C14.2288 30.6132 15.1919 28.8414 16.2341 27.2088L16.2348 27.2077C17.1535 25.7601 17.8179 24.7945 18.2361 24.2888L18.2383 24.2861L18.2405 24.2833C18.6746 23.7429 18.9917 23.1964 18.9917 22.6869C18.9917 22.2875 18.8665 21.9227 18.6008 21.6259L18.5986 21.6234L18.5963 21.6209C18.3592 21.3631 18.0486 21.2352 17.7038 21.2352C17.4149 21.2352 17.1321 21.3621 16.8813 21.5182C16.6197 21.6809 16.3338 21.9131 16.0259 22.2024C15.3529 22.8328 14.2115 23.6881 12.581 24.7731C11.3 25.6232 10.2992 25.9929 9.55225 25.9929C9.07611 25.9929 8.71007 25.8146 8.41366 25.4364C8.18345 25.1416 8.0852 24.8536 8.0852 24.5622C8.0852 23.628 8.46971 22.3591 9.31249 20.7281C10.2759 18.8754 11.482 17.076 12.9328 15.3302C15.1857 12.6271 17.4574 10.5402 19.7454 9.05723C20.85 8.34925 21.6404 8.05954 22.1569 8.05954C22.3557 8.05954 22.4925 8.10928 22.5955 8.18582C22.6858 8.25473 22.7183 8.32276 22.7183 8.43107C22.7183 8.81818 22.5804 9.32282 22.2503 9.96035C21.9226 10.5934 21.4216 11.3265 20.7366 12.1613L20.7358 12.1623L20.735 12.1632C19.8736 13.2239 18.7488 14.2726 17.3527 15.3071L17.3512 15.3083L17.3497 15.3094C17.0551 15.5312 16.8103 15.7533 16.635 15.977C16.4637 16.1955 16.3216 16.4631 16.3216 16.7658C16.3216 17.1637 16.5134 17.4883 16.8087 17.726L16.817 17.7327L16.8257 17.7391C17.0786 17.9253 17.3676 18.0438 17.6849 18.0438C18.2538 18.0438 18.8747 17.7714 19.521 17.3397C20.1793 16.9 20.9244 16.2535 21.7541 15.4136C23.9382 13.2028 25.1053 10.9946 25.1053 8.79571C25.1053 8.02968 24.876 7.34516 24.411 6.76543L24.4103 6.76449L24.4095 6.76355C23.7997 6.01083 22.9918 5.625 22.0249 5.625C20.2377 5.625 18.186 6.57369 15.8937 8.33148C13.0861 10.4806 10.618 13.0398 8.48968 16.0069L8.48902 16.0078C6.19944 19.2151 5 22.0961 5 24.6316C5 25.5875 5.2689 26.4491 5.8116 27.1982Z" fill="url(#paint1_radial_172_29634)" shape-rendering="crispEdges"/>
<path d="M27.8128 20.814L27.8245 20.7969L27.8347 20.7789C27.9844 20.5144 28.1378 20.2432 28.2965 19.9627C29.388 18.0331 30.7289 15.6626 32.834 11.9992C33.2164 11.3364 33.5102 10.7673 33.7098 10.2957C33.9031 9.83924 34.0323 9.42008 34.0323 9.07717C34.0323 8.75516 33.9379 8.45563 33.749 8.1949C33.4967 7.84668 33.1276 7.67758 32.7067 7.67758C32.0314 7.67758 31.5424 8.10548 31.2166 8.71492L24.8472 19.8434C24.48 20.4276 24.2291 20.9801 24.2291 21.454C24.2291 21.8222 24.3493 22.1607 24.5692 22.4583C24.8203 22.8104 25.1741 23.062 25.6302 23.062C26.2698 23.062 26.737 22.5543 27.0779 21.9631L27.0842 21.9522L27.0899 21.9411C27.1736 21.7773 27.4063 21.4102 27.8128 20.814Z" fill="url(#paint2_radial_172_29634)" shape-rendering="crispEdges"/>
<path d="M23.8187 23.7182C24.2558 23.7182 24.6243 23.9103 24.8985 24.2455C25.1105 24.5004 25.2009 24.8099 25.2009 25.1352C25.2009 25.7806 25.0068 26.4345 24.6508 27.0903C24.2552 27.8308 23.6671 28.3059 22.8752 28.3059C22.5048 28.3059 22.1371 28.2086 21.8676 27.9282C21.6013 27.6512 21.5119 27.2793 21.5119 26.9063C21.5119 26.1885 21.7528 25.4829 22.1948 24.7965C22.5998 24.1668 23.1338 23.7182 23.8187 23.7182Z" fill="url(#paint3_radial_172_29634)" shape-rendering="crispEdges"/>
</g>
<mask id="mask0_172_29634" style="mask-type:alpha" maskUnits="userSpaceOnUse" x="5" y="5" width="30" height="29">
<path d="M5.8116 27.1982L5.81248 27.1994C6.56073 28.2257 7.54498 28.7747 8.74087 28.7747C9.7208 28.7747 10.8277 28.4244 12.0456 27.7808C12.1845 27.7091 12.3344 27.6281 12.4952 27.5379L12.4826 27.5598C11.4275 29.376 10.7881 30.4938 10.5739 30.8983C10.4074 31.1768 10.2121 31.6307 10.2067 32.0978C10.2038 32.3436 10.2535 32.6181 10.4145 32.8677C10.5791 33.1227 10.8314 33.3076 11.1543 33.4156C11.7497 33.6145 12.2581 33.5323 12.6466 33.3066C13.0102 33.0954 13.2382 32.7769 13.3453 32.5246C14.2288 30.6132 15.1919 28.8414 16.2341 27.2088L16.2348 27.2077C17.1535 25.7601 17.8179 24.7945 18.2361 24.2888L18.2383 24.2861L18.2405 24.2833C18.6746 23.7429 18.9917 23.1964 18.9917 22.6869C18.9917 22.2875 18.8665 21.9227 18.6008 21.6259L18.5986 21.6234L18.5963 21.6209C18.3592 21.3631 18.0486 21.2352 17.7038 21.2352C17.4149 21.2352 17.1321 21.3621 16.8813 21.5182C16.6197 21.6809 16.3338 21.9131 16.0259 22.2024C15.3529 22.8328 14.2115 23.6881 12.581 24.7731C11.3 25.6232 10.2992 25.9929 9.55225 25.9929C9.07611 25.9929 8.71007 25.8146 8.41366 25.4364C8.18345 25.1416 8.0852 24.8536 8.0852 24.5622C8.0852 23.628 8.46971 22.3591 9.31249 20.7281C10.2759 18.8754 11.482 17.076 12.9328 15.3302C15.1857 12.6271 17.4574 10.5402 19.7454 9.05723C20.85 8.34925 21.6404 8.05954 22.1569 8.05954C22.3557 8.05954 22.4925 8.10928 22.5955 8.18582C22.6858 8.25473 22.7183 8.32276 22.7183 8.43107C22.7183 8.81818 22.5804 9.32282 22.2503 9.96035C21.9226 10.5934 21.4216 11.3265 20.7366 12.1613L20.7358 12.1623L20.735 12.1632C19.8736 13.2239 18.7488 14.2726 17.3527 15.3071L17.3512 15.3083L17.3497 15.3094C17.0551 15.5312 16.8103 15.7533 16.635 15.977C16.4637 16.1955 16.3216 16.4631 16.3216 16.7658C16.3216 17.1637 16.5134 17.4883 16.8087 17.726L16.817 17.7327L16.8257 17.7391C17.0786 17.9253 17.3676 18.0438 17.6849 18.0438C18.2538 18.0438 18.8747 17.7714 19.521 17.3397C20.1793 16.9 20.9244 16.2535 21.7541 15.4136C23.9382 13.2028 25.1053 10.9946 25.1053 8.79571C25.1053 8.02968 24.876 7.34516 24.411 6.76543L24.4103 6.76449L24.4095 6.76355C23.7997 6.01083 22.9918 5.625 22.0249 5.625C20.2377 5.625 18.186 6.57369 15.8937 8.33148C13.0861 10.4806 10.618 13.0398 8.48968 16.0069L8.48902 16.0078C6.19944 19.2151 5 22.0961 5 24.6316C5 25.5875 5.2689 26.4491 5.8116 27.1982Z" fill="white"/>
<path d="M27.8128 20.814L27.8245 20.7969L27.8347 20.7789C27.9844 20.5144 28.1378 20.2432 28.2965 19.9627C29.388 18.0331 30.7289 15.6626 32.834 11.9992C33.2164 11.3364 33.5102 10.7673 33.7098 10.2957C33.9031 9.83924 34.0323 9.42008 34.0323 9.07717C34.0323 8.75516 33.9379 8.45563 33.749 8.1949C33.4967 7.84668 33.1276 7.67758 32.7067 7.67758C32.0314 7.67758 31.5424 8.10548 31.2166 8.71492L24.8472 19.8434C24.48 20.4276 24.2291 20.9801 24.2291 21.454C24.2291 21.8222 24.3493 22.1607 24.5692 22.4583C24.8203 22.8104 25.1741 23.062 25.6302 23.062C26.2698 23.062 26.737 22.5543 27.0779 21.9631L27.0842 21.9522L27.0899 21.9411C27.1736 21.7773 27.4063 21.4102 27.8128 20.814Z" fill="white"/>
<path d="M23.8187 23.7182C24.2558 23.7182 24.6243 23.9103 24.8985 24.2455C25.1105 24.5004 25.2009 24.8099 25.2009 25.1352C25.2009 25.7806 25.0068 26.4345 24.6508 27.0903C24.2552 27.8308 23.6671 28.3059 22.8752 28.3059C22.5048 28.3059 22.1371 28.2086 21.8676 27.9282C21.6013 27.6512 21.5119 27.2793 21.5119 26.9063C21.5119 26.1885 21.7528 25.4829 22.1948 24.7965C22.5998 24.1668 23.1338 23.7182 23.8187 23.7182Z" fill="white"/>
</mask>
<g mask="url(#mask0_172_29634)">
<path d="M18.0647 24.6573C18.4987 24.1169 18.9918 23.1964 18.9918 22.6869C18.9918 22.2875 18.8666 21.9227 18.601 21.6259L18.5988 21.6234L18.5965 21.6209C18.3594 21.3631 18.0488 21.2352 17.704 21.2352C17.4151 21.2352 17.1323 21.3621 16.8814 21.5182C16.6199 21.6809 16.1145 22.0292 15.8066 22.3185M22.025 5.625C22.992 5.625 23.7999 6.01083 24.4097 6.76355L24.4104 6.76449L24.4112 6.76543C24.8762 7.34516 25.1055 8.02968 25.1055 8.79571C25.1078 9.27107 24.9723 10.5444 24.4112 11.8347M29.597 17.6411C29.9793 16.9784 33.5102 10.6127 33.7099 10.1411C33.9031 9.68465 33.9518 9.43565 33.9518 9.09274C33.9518 8.77073 33.8988 8.46637 33.7099 8.20565C33.4576 7.85742 33.1631 7.72177 32.7421 7.72177C32.0669 7.72177 31.5357 8.16072 31.2099 8.77016M22.9034 23.9315C24.0324 23.4476 24.6245 23.9103 24.8987 24.2455C25.1107 24.5004 25.2421 24.9798 25.2421 25.4637" stroke="white" stroke-linecap="round" stroke-linejoin="round"/>
</g>
<defs>
<filter id="filter0_d_172_29634" x="18.7422" y="30.9475" width="20.2578" height="11.8708" filterUnits="userSpaceOnUse" color-interpolation-filters="sRGB">
<feFlood flood-opacity="0" result="BackgroundImageFix"/>
<feColorMatrix in="SourceAlpha" type="matrix" values="0 0 0 0 0 0 0 0 0 0 0 0 0 0 0 0 0 0 127 0" result="hardAlpha"/>
<feOffset dy="4"/>
<feGaussianBlur stdDeviation="2"/>
<feComposite in2="hardAlpha" operator="out"/>
<feColorMatrix type="matrix" values="0 0 0 0 0.936833 0 0 0 0 0.39347 0 0 0 0 0 0 0 0 1 0"/>
<feBlend mode="normal" in2="BackgroundImageFix" result="effect1_dropShadow_172_29634"/>
<feBlend mode="normal" in="SourceGraphic" in2="effect1_dropShadow_172_29634" result="shape"/>
</filter>
<filter id="filter1_d_172_29634" x="1" y="5.625" width="37.0322" height="35.9033" filterUnits="userSpaceOnUse" color-interpolation-filters="sRGB">
<feFlood flood-opacity="0" result="BackgroundImageFix"/>
<feColorMatrix in="SourceAlpha" type="matrix" values="0 0 0 0 0 0 0 0 0 0 0 0 0 0 0 0 0 0 127 0" result="hardAlpha"/>
<feOffset dy="4"/>
<feGaussianBlur stdDeviation="2"/>
<feComposite in2="hardAlpha" operator="out"/>
<feColorMatrix type="matrix" values="0 0 0 0 0.936833 0 0 0 0 0.39347 0 0 0 0 0 0 0 0 1 0"/>
<feBlend mode="normal" in2="BackgroundImageFix" result="effect1_dropShadow_172_29634"/>
<feBlend mode="normal" in="SourceGraphic" in2="effect1_dropShadow_172_29634" result="shape"/>
</filter>
<radialGradient id="paint0_radial_172_29634" cx="0" cy="0" r="1" gradientUnits="userSpaceOnUse" gradientTransform="translate(36.875 46.0938) rotate(-119.435) scale(37.6761 37.6216)">
<stop stop-color="#FFA030"/>
<stop offset="1" stop-color="#FF6B00"/>
</radialGradient>
<radialGradient id="paint1_radial_172_29634" cx="0" cy="0" r="1" gradientUnits="userSpaceOnUse" gradientTransform="translate(9.6875 17.8125) rotate(42.7543) scale(22.5564 31.0975)">
<stop stop-color="white"/>
<stop offset="0.828959" stop-color="white" stop-opacity="0.85"/>
</radialGradient>
<radialGradient id="paint2_radial_172_29634" cx="0" cy="0" r="1" gradientUnits="userSpaceOnUse" gradientTransform="translate(9.6875 17.8125) rotate(42.7543) scale(22.5564 31.0975)">
<stop stop-color="white"/>
<stop offset="0.828959" stop-color="white" stop-opacity="0.85"/>
</radialGradient>
<radialGradient id="paint3_radial_172_29634" cx="0" cy="0" r="1" gradientUnits="userSpaceOnUse" gradientTransform="translate(9.6875 17.8125) rotate(42.7543) scale(22.5564 31.0975)">
<stop stop-color="white"/>
<stop offset="0.828959" stop-color="white" stop-opacity="0.85"/>
</radialGradient>
</defs>
</svg>
