<svg width="16" height="14" viewBox="0 0 16 14" fill="none" xmlns="http://www.w3.org/2000/svg">
<path fill-rule="evenodd" clip-rule="evenodd" d="M1.5 0.5C0.671573 0.5 0 1.17157 0 2V12C0 12.8284 0.671573 13.5 1.5 13.5H14.5C15.3284 13.5 16 12.8284 16 12V2C16 1.17157 15.3284 0.5 14.5 0.5H1.5ZM1 2C1 1.72386 1.22386 1.5 1.5 1.5H14.5C14.7761 1.5 15 1.72386 15 2V2.29582L8.00001 8.34916L1 2.2958V2ZM1 3.65848V12C1 12.2761 1.22386 12.5 1.5 12.5H14.5C14.7761 12.5 15 12.2761 15 12V3.6585L10.6199 7.41284L12.3536 9.14645C12.5488 9.34171 12.5488 9.65829 12.3536 9.85355C12.1583 10.0488 11.8417 10.0488 11.6464 9.85355L9.85844 8.06555L8.3201 9.38412C8.13468 9.53864 7.86534 9.53864 7.67992 9.38412L6.14157 8.06554L4.35355 9.85355C4.15829 10.0488 3.84171 10.0488 3.64645 9.85355C3.45118 9.65829 3.45118 9.34171 3.64645 9.14645L5.38007 7.41282L1 3.65848Z" fill="black"/>
</svg>
