<svg width="16" height="16" viewBox="0 0 16 16" fill="none" xmlns="http://www.w3.org/2000/svg">
<path fill-rule="evenodd" clip-rule="evenodd" d="M2.00009 0C1.17166 0 0.500092 0.671573 0.500092 1.5L9.15527e-05 5V6C9.15527e-05 6.88846 0.386305 7.68671 1 8.23603V11H0.500004H0.499935C0.223792 11 -6.84857e-05 11.2239 -7.24792e-05 11.5L-0.000152588 14.8333C-0.000152588 15.1428 0.122764 15.4395 0.341556 15.6583C0.56035 15.8771 0.857096 16 1.16651 16L14.8333 16C15.1428 16 15.4395 15.8771 15.6583 15.6583C15.8771 15.4395 16 15.1427 16 14.8333V11.5C16 11.2239 15.7761 11 15.5 11H15V8.23619C15.6138 7.68686 16.0001 6.88854 16.0001 6V5L15.5001 1.5C15.5001 0.671573 14.8285 0 14.0001 0H2.00009ZM14 8.82933C13.6873 8.93986 13.3507 9 13.0001 9C11.9566 9 11.0376 8.46724 10.5001 7.65889C9.96263 8.46724 9.04358 9 8.00009 9C6.95661 9 6.03755 8.46725 5.50009 7.6589C4.96263 8.46725 4.04358 9 3.00009 9C2.64942 9 2.31281 8.93983 2 8.82926V11H14V8.82933ZM1.00009 6V5H5.00009V6C5.00009 7.10457 4.10466 8 3.00009 8C1.89552 8 1.00009 7.10457 1.00009 6ZM6.00009 6V5H10.0001V6C10.0001 7.10457 9.10466 8 8.00009 8C6.89552 8 6.00009 7.10457 6.00009 6ZM11.0001 6V5H15.0001V6C15.0001 7.10457 14.1047 8 13.0001 8C11.8955 8 11.0001 7.10457 11.0001 6ZM1.50009 1.5C1.50009 1.22386 1.72395 1 2.00009 1H14.0001C14.2762 1 14.5001 1.22386 14.5001 1.5L14.8001 4H1.20009L1.50009 1.5ZM0.999847 14.8333L0.999915 12H15V14.8333C15 14.8775 14.9824 14.9199 14.9512 14.9512C14.9199 14.9824 14.8775 15 14.8333 15L1.16651 15C1.12231 15 1.07992 14.9824 1.04866 14.9512C1.01741 14.9199 0.999847 14.8775 0.999847 14.8333Z" fill="black"/>
</svg>
