<svg width="24" height="24" viewBox="0 0 24 24" fill="none" xmlns="http://www.w3.org/2000/svg">
<path fill-rule="evenodd" clip-rule="evenodd" d="M12 4C11.611 4 11.2738 4.22216 11.1085 4.54654C9.2104 4.75194 7.94441 5.61889 7.14986 6.78016C6.25812 8.08347 6.00001 9.69779 6.00001 11V15C6.00001 15.5997 5.69239 16.2476 5.33399 16.7851C5.16021 17.0458 4.9857 17.264 4.85476 17.4168C4.78951 17.4929 4.73567 17.5521 4.69894 17.5915C4.68059 17.6111 4.66656 17.6258 4.65756 17.6351L4.64795 17.6449L4.64618 17.6467C4.50341 17.7897 4.46074 18.0046 4.53807 18.1913C4.61547 18.3782 4.79778 18.5 5.00001 18.5H9.55001C9.78164 19.6411 10.7905 20.5 12 20.5C13.2095 20.5 14.2184 19.6411 14.45 18.5H19C19.2022 18.5 19.3846 18.3782 19.462 18.1913C19.5393 18.0046 19.4964 17.7894 19.3536 17.6464L19.3521 17.6449L19.3425 17.6351C19.3335 17.6258 19.3194 17.6111 19.3011 17.5915C19.2644 17.5521 19.2105 17.4929 19.1453 17.4168C19.0143 17.264 18.8398 17.0458 18.666 16.7851C18.3076 16.2476 18 15.5997 18 15V11C18 9.74527 17.741 8.13327 16.8515 6.81967C16.0592 5.64944 14.7943 4.75888 12.8921 4.54779C12.7271 4.22273 12.3895 4 12 4ZM13.4146 18.5H10.5854C10.7913 19.0826 11.3469 19.5 12 19.5C12.6531 19.5 13.2087 19.0826 13.4146 18.5ZM14.5 17.5H17.9439C17.9075 17.4484 17.8708 17.395 17.834 17.3399C17.4424 16.7524 17 15.9003 17 15V11C17 9.85473 16.7591 8.46673 16.0235 7.38033C15.3088 6.32472 14.0928 5.5 12 5.5C9.9017 5.5 8.68717 6.30422 7.97517 7.34484C7.24191 8.41653 7.00001 9.80221 7.00001 11V15C7.00001 15.9003 6.55764 16.7524 6.16604 17.3399C6.12928 17.395 6.09254 17.4484 6.05613 17.5H9.5H14.5Z" fill="black"/>
<circle cx="18" cy="6" r="2.5" fill="#FF6B00" stroke="white"/>
</svg>
