<svg width="80" height="80" viewBox="0 0 80 80" fill="none" xmlns="http://www.w3.org/2000/svg">
<rect width="80" height="80" rx="4" fill="#F5F5F5"/>
<path fill-rule="evenodd" clip-rule="evenodd" d="M29.1667 28.3337C28.7064 28.3337 28.3334 28.7068 28.3334 29.167V50.8337C28.3334 51.2939 28.7064 51.667 29.1667 51.667H45C45.4603 51.667 45.8334 51.2939 45.8334 50.8337V35.0003H41.6667C40.286 35.0003 39.1667 33.881 39.1667 32.5003V28.3337H29.1667ZM40.8334 29.5122L44.6548 33.3337H41.6667C41.2064 33.3337 40.8334 32.9606 40.8334 32.5003V29.5122ZM26.6667 29.167C26.6667 27.7863 27.786 26.667 29.1667 26.667H40.3452L47.5 33.8218V50.8337C47.5 52.2144 46.3807 53.3337 45 53.3337H29.1667C27.786 53.3337 26.6667 52.2144 26.6667 50.8337V29.167ZM46.0774 26.9111C46.4029 26.5856 46.9305 26.5856 47.2559 26.9111L52.6011 32.2562C53.07 32.7251 53.3334 33.361 53.3334 34.024V50.8337C53.3334 52.2144 52.2141 53.3337 50.8334 53.3337H50C49.5398 53.3337 49.1667 52.9606 49.1667 52.5003C49.1667 52.0401 49.5398 51.667 50 51.667H50.8334C51.2936 51.667 51.6667 51.2939 51.6667 50.8337V34.024C51.6667 33.803 51.5789 33.591 51.4226 33.4348L46.0774 28.0896C45.752 27.7641 45.752 27.2365 46.0774 26.9111ZM30 35.8337C30 35.3734 30.3731 35.0003 30.8334 35.0003H36.6667C37.1269 35.0003 37.5 35.3734 37.5 35.8337C37.5 36.2939 37.1269 36.667 36.6667 36.667H30.8334C30.3731 36.667 30 36.2939 30 35.8337ZM30 40.8337C30 40.3734 30.3731 40.0003 30.8334 40.0003H43.3334C43.7936 40.0003 44.1667 40.3734 44.1667 40.8337C44.1667 41.2939 43.7936 41.667 43.3334 41.667H30.8334C30.3731 41.667 30 41.2939 30 40.8337ZM30 45.8337C30 45.3734 30.3731 45.0003 30.8334 45.0003H43.3334C43.7936 45.0003 44.1667 45.3734 44.1667 45.8337C44.1667 46.2939 43.7936 46.667 43.3334 46.667H30.8334C30.3731 46.667 30 46.2939 30 45.8337Z" fill="#AAAAAA"/>
</svg>
