<svg width="24" height="24" viewBox="0 0 24 24" fill="none" xmlns="http://www.w3.org/2000/svg">
<path fill-rule="evenodd" clip-rule="evenodd" d="M6.5 4.5C6.5 4.22386 6.72386 4 7 4H17C17.2761 4 17.5 4.22386 17.5 4.5V8.5H18.5C19.3284 8.5 20 9.17157 20 10V16C20 16.8284 19.3284 17.5 18.5 17.5H17.5V19.5C17.5 19.7761 17.2761 20 17 20H7C6.72386 20 6.5 19.7761 6.5 19.5V17.5H5.5C4.67157 17.5 4 16.8284 4 16V10C4 9.17157 4.67157 8.5 5.5 8.5H6.5V4.5ZM5.5 9.5C5.22386 9.5 5 9.72386 5 10V16C5 16.2761 5.22386 16.5 5.5 16.5H6.5V13.5C6.5 13.2239 6.72386 13 7 13H17C17.2761 13 17.5 13.2239 17.5 13.5V16.5H18.5C18.7761 16.5 19 16.2761 19 16V10C19 9.72386 18.7761 9.5 18.5 9.5H5.5ZM16.5 8.5H7.5V5H16.5V8.5ZM16.5 14H7.5V19H16.5V14Z" fill="black"/>
</svg>
