<svg width="48" height="48" viewBox="0 0 48 48" fill="none" xmlns="http://www.w3.org/2000/svg">
<path fill-rule="evenodd" clip-rule="evenodd" d="M9.99982 26L9.99982 16C9.99982 15.4477 10.4475 15 10.9998 15L32.5856 15L29.2927 18.2929C28.9022 18.6834 28.9022 19.3166 29.2927 19.7071C29.6832 20.0977 30.3164 20.0977 30.7069 19.7071L35.7069 14.7071C36.0974 14.3166 36.0974 13.6834 35.7069 13.2929L30.7069 8.29292C30.3164 7.9024 29.6832 7.9024 29.2927 8.29292C28.9022 8.68345 28.9022 9.31661 29.2927 9.70714L32.5856 13L10.9998 13C9.34296 13 7.99982 14.3432 7.99982 16V26C7.99982 26.5523 8.44753 27 8.99982 27C9.5521 27 9.99982 26.5523 9.99982 26ZM38.9998 21C38.4475 21 37.9998 21.4477 37.9998 22V32C37.9998 32.5523 37.5521 33 36.9998 33H15.414L18.7069 29.7071C19.0974 29.3166 19.0974 28.6834 18.7069 28.2929C18.3164 27.9024 17.6832 27.9024 17.2927 28.2929L12.2927 33.2929C11.9022 33.6835 11.9022 34.3166 12.2927 34.7071L17.2927 39.7071C17.6832 40.0977 18.3164 40.0977 18.7069 39.7071C19.0974 39.3166 19.0974 38.6835 18.7069 38.2929L15.414 35H36.9998C38.6567 35 39.9998 33.6569 39.9998 32V22C39.9998 21.4477 39.5521 21 38.9998 21Z" fill="#1A73E8"/>
</svg>
