<svg width="16" height="16" viewBox="0 0 16 16" fill="none" xmlns="http://www.w3.org/2000/svg">
<path fill-rule="evenodd" clip-rule="evenodd" d="M3.79963 2.39975C4.84487 1.61444 6.11651 1.11512 7.50003 1.01757V5C7.50003 5.27614 7.72389 5.5 8.00003 5.5C8.27617 5.5 8.50003 5.27614 8.50003 5V1.01757C9.88355 1.11512 11.1552 1.61444 12.2004 2.39975C12.4212 2.56562 12.7346 2.52111 12.9005 2.30034C13.0664 2.07956 13.0219 1.76612 12.8011 1.60025C11.4639 0.595562 9.80077 0 8.00003 0C6.19928 0 4.5362 0.595562 3.19896 1.60025C2.97819 1.76612 2.93368 2.07956 3.09955 2.30034C3.26542 2.52111 3.57886 2.56562 3.79963 2.39975ZM3.79963 13.6003C3.57886 13.4344 3.26542 13.4789 3.09955 13.6997C2.93368 13.9204 2.97819 14.2339 3.19896 14.3997C4.5362 15.4044 6.19928 16 8.00003 16C9.80077 16 11.4639 15.4044 12.8011 14.3997C13.0219 14.2339 13.0664 13.9204 12.9005 13.6997C12.7346 13.4789 12.4212 13.4344 12.2004 13.6003C11.1552 14.3856 9.88355 14.8849 8.50003 14.9824V13C8.50003 12.7239 8.27617 12.5 8.00003 12.5C7.72389 12.5 7.50003 12.7239 7.50003 13V14.9824C6.11651 14.8849 4.84487 14.3856 3.79963 13.6003ZM0.5 3C0.223858 3 0 3.22386 0 3.5V12C0 12.2761 0.223858 12.5 0.5 12.5H5.5C5.77614 12.5 6 12.2761 6 12V9.70711L7.64645 11.3536C7.84171 11.5488 8.15829 11.5488 8.35355 11.3536L10 9.70711V12C10 12.2761 10.2239 12.5 10.5 12.5H15.5C15.7761 12.5 16 12.2761 16 12V3.5C16 3.22386 15.7761 3 15.5 3H13C12.8674 3 12.7402 3.05268 12.6464 3.14645L8 7.29289L3.35355 3.14645C3.25979 3.05268 3.13261 3 3 3H0.5ZM1 11.5V4H2.5V11.5H1ZM7.64645 8.35355L3.5 4.70711V11.5H5V8.5C5 8.29777 5.12182 8.11545 5.30866 8.03806C5.4955 7.96067 5.71055 8.00345 5.85355 8.14645L8 10.2929L10.1464 8.14645C10.2894 8.00345 10.5045 7.96067 10.6913 8.03806C10.8782 8.11545 11 8.29777 11 8.5V11.5H12.5V4.70711L8.35355 8.35355C8.15829 8.54882 7.84171 8.54882 7.64645 8.35355ZM15 11.5H13.5V4H15V11.5Z" fill="black"/>
</svg>
