<svg width="18" height="16" viewBox="0 0 18 16" fill="none" xmlns="http://www.w3.org/2000/svg">
<path fill-rule="evenodd" clip-rule="evenodd" d="M5 7C6.65685 7 8 5.65685 8 4C8 2.34315 6.65685 1 5 1C3.34315 1 2 2.34315 2 4C2 5.65685 3.34315 7 5 7ZM5 8C7.20914 8 9 6.20914 9 4C9 1.79086 7.20914 0 5 0C2.79086 0 1 1.79086 1 4C1 6.20914 2.79086 8 5 8ZM1 13.5C1 11.2909 2.79086 9.5 5 9.5C7.20914 9.5 9 11.2909 9 13.5V15.5C9 15.7761 9.22386 16 9.5 16C9.77614 16 10 15.7761 10 15.5V13.5C10 10.7386 7.76142 8.5 5 8.5C2.23858 8.5 0 10.7386 0 13.5V15.5C0 15.7761 0.223858 16 0.5 16C0.776142 16 1 15.7761 1 15.5V13.5ZM11.7504 11.9679C12.2647 11.6704 12.8617 11.5 13.5001 11.5C15.4331 11.5 17.0001 13.067 17.0001 15C17.0001 15.2761 17.2239 15.5 17.5001 15.5C17.7762 15.5 18.0001 15.2761 18.0001 15C18.0001 12.5147 15.9854 10.5 13.5001 10.5C12.6813 10.5 11.9121 10.7191 11.2497 11.1023C11.0107 11.2406 10.929 11.5465 11.0673 11.7855C11.2056 12.0245 11.5114 12.1062 11.7504 11.9679ZM16 6C16 7.10457 15.1046 8 14 8C12.8954 8 12 7.10457 12 6C12 4.89543 12.8954 4 14 4C15.1046 4 16 4.89543 16 6ZM17 6C17 7.65685 15.6569 9 14 9C12.3431 9 11 7.65685 11 6C11 4.34315 12.3431 3 14 3C15.6569 3 17 4.34315 17 6Z" fill="black"/>
</svg>
