<svg width="97" height="32" viewBox="0 0 97 32" fill="none" xmlns="http://www.w3.org/2000/svg">
<g clip-path="url(#clip0_11951_283749)">
<path d="M6.36442 31.8982C6.11637 31.8982 5.87431 31.895 5.62821 31.8893C5.11839 31.8825 4.60976 31.8368 4.1065 31.7528C3.63723 31.6698 3.18263 31.5153 2.75771 31.2945C2.33668 31.0755 1.95266 30.7883 1.62037 30.444C1.28328 30.1038 1.00263 29.7092 0.789552 29.2758C0.574126 28.8396 0.425039 28.3721 0.347483 27.8894C0.263729 27.3709 0.218415 26.8465 0.211931 26.3209C0.206769 26.1445 0.200012 25.557 0.200012 25.557V6.23209C0.200012 6.23209 0.207209 5.65369 0.211972 5.48376C0.21818 4.95897 0.263231 4.43543 0.346734 3.91766C0.424433 3.43373 0.573636 2.96484 0.789178 2.52722C1.00147 2.09415 1.28056 1.69922 1.61563 1.35775C1.95032 1.01304 2.33556 0.724417 2.75731 0.502399C3.18126 0.282287 3.635 0.128895 4.10332 0.0473624C4.60823 -0.0374929 5.11863 -0.0833698 5.63022 -0.0898833L6.36482 -0.100098H90.0312L90.7746 -0.0894734C91.2815 -0.0832835 91.7873 -0.037816 92.2876 0.0465425C92.7606 0.129098 93.2191 0.283561 93.6479 0.504851C94.4928 0.95228 95.1803 1.66016 95.614 2.52926C95.8261 2.96386 95.973 3.42893 96.0497 3.90868C96.1342 4.43069 96.1815 4.95835 96.1912 5.48744C96.1936 5.72435 96.1936 5.97883 96.1936 6.23209C96.2 6.5458 96.2 6.84439 96.2 7.14544V24.6535C96.2 24.9574 96.2 25.254 96.1936 25.5529C96.1936 25.825 96.1936 26.0742 96.1904 26.3307C96.1809 26.8503 96.1344 27.3686 96.0513 27.8812C95.9753 28.3673 95.827 28.8385 95.6116 29.2783C95.3971 29.707 95.118 30.0982 94.7848 30.4375C94.4522 30.7837 94.0675 31.0725 93.6455 31.2929C93.2179 31.5154 92.7601 31.6705 92.2876 31.7528C91.7843 31.8373 91.2757 31.8829 90.7658 31.8893C90.5274 31.895 90.2777 31.8982 90.0352 31.8982L89.1527 31.8999L6.36442 31.8982Z" fill="black"/>
<path d="M18.9495 15.4406C18.9581 14.7729 19.1354 14.1182 19.4651 13.5374C19.7947 12.9566 20.2659 12.4687 20.8347 12.119C20.4733 11.6028 19.9966 11.1781 19.4423 10.8784C18.8881 10.5788 18.2716 10.4125 17.6418 10.3928C16.2984 10.2518 14.9961 11.1967 14.3115 11.1967C13.6137 11.1967 12.5597 10.4068 11.4247 10.4302C10.6905 10.4539 9.97507 10.6674 9.34796 11.0498C8.72086 11.4323 8.20352 11.9706 7.84635 12.6125C6.29915 15.2912 7.45322 19.228 8.93531 21.3933C9.67683 22.4536 10.5435 23.638 11.6774 23.596C12.7871 23.5499 13.2015 22.8884 14.5409 22.8884C15.8679 22.8884 16.2568 23.596 17.4137 23.5693C18.6044 23.5499 19.3546 22.5043 20.0701 21.4339C20.6029 20.6785 21.0129 19.8435 21.2849 18.9599C20.5931 18.6674 20.0028 18.1776 19.5875 17.5518C19.1722 16.9259 18.9503 16.1917 18.9495 15.4406Z" fill="white"/>
<path d="M16.7642 8.96877C17.4134 8.1894 17.7332 7.18766 17.6558 6.17627C16.6639 6.28045 15.7477 6.75449 15.0897 7.50396C14.768 7.87009 14.5216 8.29604 14.3646 8.75745C14.2076 9.21887 14.1431 9.7067 14.1748 10.1931C14.6709 10.1982 15.1617 10.0906 15.6102 9.87858C16.0587 9.66651 16.4533 9.35543 16.7642 8.96877Z" fill="white"/>
<path d="M32.9762 20.9118H29.1895L28.2801 23.5969H26.6762L30.2629 13.6625H31.9293L35.516 23.5969H33.8848L32.9762 20.9118ZM29.5817 19.6727H32.5833L31.1036 15.3149H31.0622L29.5817 19.6727Z" fill="white"/>
<path d="M43.2621 19.9758C43.2621 22.2266 42.0574 23.6727 40.2395 23.6727C39.779 23.6968 39.321 23.5907 38.9179 23.3666C38.5149 23.1425 38.1831 22.8094 37.9606 22.4055H37.9262V25.993H36.4395V16.354H37.8785V17.5586H37.9059C38.1386 17.1567 38.476 16.8253 38.8821 16.5998C39.2882 16.3744 39.7479 16.2632 40.2121 16.2782C42.0504 16.2782 43.2621 17.7313 43.2621 19.9758ZM41.734 19.9758C41.734 18.5094 40.9762 17.5454 39.8199 17.5454C38.684 17.5454 37.9199 18.5297 37.9199 19.9758C37.9199 21.4352 38.684 22.4126 39.8199 22.4126C40.9762 22.4126 41.734 21.4555 41.734 19.9758Z" fill="white"/>
<path d="M51.234 19.9758C51.234 22.2266 50.0293 23.6727 48.2114 23.6727C47.7508 23.6968 47.2928 23.5907 46.8898 23.3666C46.4868 23.1425 46.155 22.8094 45.9324 22.4055H45.898V25.993H44.4113V16.354H45.8504V17.5586H45.8777C46.1105 17.1567 46.4479 16.8253 46.854 16.5998C47.2601 16.3744 47.7197 16.2632 48.184 16.2782C50.0223 16.2782 51.234 17.7313 51.234 19.9758ZM49.7059 19.9758C49.7059 18.5094 48.9481 17.5454 47.7918 17.5454C46.6559 17.5454 45.8918 18.5297 45.8918 19.9758C45.8918 21.4352 46.6559 22.4126 47.7918 22.4126C48.9481 22.4126 49.7059 21.4555 49.7059 19.9758Z" fill="white"/>
<path d="M56.5028 20.829C56.6129 21.8141 57.57 22.461 58.8778 22.461C60.1309 22.461 61.0324 21.8141 61.0324 20.9258C61.0324 20.1547 60.4887 19.693 59.2012 19.3766L57.9137 19.0664C56.0895 18.6258 55.2426 17.7727 55.2426 16.3883C55.2426 14.6742 56.7364 13.4969 58.8574 13.4969C60.9566 13.4969 62.3957 14.6742 62.4442 16.3883H60.9434C60.8535 15.3969 60.034 14.7985 58.8363 14.7985C57.6387 14.7985 56.8191 15.4039 56.8191 16.2852C56.8191 16.9875 57.3426 17.4008 58.6231 17.7172L59.7176 17.9859C61.7559 18.468 62.6027 19.2867 62.6027 20.7398C62.6027 22.5984 61.1223 23.7625 58.7676 23.7625C56.5645 23.7625 55.077 22.6258 54.9809 20.8289L56.5028 20.829Z" fill="white"/>
<path d="M65.8113 14.6399V16.354H67.1887V17.5313H65.8113V21.5243C65.8113 22.1446 66.0871 22.4336 66.6926 22.4336C66.8561 22.4308 67.0194 22.4193 67.1817 22.3992V23.5696C66.9094 23.6204 66.6328 23.6435 66.3559 23.6383C64.8895 23.6383 64.3176 23.0875 64.3176 21.6828V17.5313H63.2645V16.354H64.3176V14.6399H65.8113Z" fill="white"/>
<path d="M67.9864 19.9758C67.9864 17.6969 69.3286 16.2649 71.4215 16.2649C73.5215 16.2649 74.8575 17.6969 74.8575 19.9758C74.8575 22.261 73.5286 23.6868 71.4215 23.6868C69.3153 23.6868 67.9864 22.261 67.9864 19.9758ZM73.3426 19.9758C73.3426 18.4126 72.6262 17.4899 71.4215 17.4899C70.2168 17.4899 69.5012 18.4196 69.5012 19.9758C69.5012 21.5454 70.2168 22.461 71.4215 22.461C72.6262 22.461 73.3426 21.5454 73.3426 19.9758Z" fill="white"/>
<path d="M76.0832 16.354H77.5012V17.5868H77.5356C77.6315 17.2017 77.8571 16.8615 78.1744 16.6232C78.4916 16.3848 78.8813 16.263 79.2778 16.2782C79.4491 16.2776 79.62 16.2962 79.7872 16.3336V17.7243C79.5709 17.6582 79.3452 17.6278 79.1192 17.6344C78.9032 17.6257 78.6879 17.6637 78.488 17.746C78.2881 17.8284 78.1084 17.9529 77.9612 18.1113C77.8141 18.2696 77.7029 18.4579 77.6353 18.6632C77.5678 18.8685 77.5455 19.0861 77.5699 19.3008V23.5969H76.0832L76.0832 16.354Z" fill="white"/>
<path d="M86.6418 21.4696C86.4418 22.7844 85.1614 23.6868 83.5231 23.6868C81.416 23.6868 80.1082 22.275 80.1082 20.0102C80.1082 17.7383 81.4231 16.2649 83.4606 16.2649C85.4645 16.2649 86.7246 17.6415 86.7246 19.8375V20.3469H81.609V20.4368C81.5854 20.7033 81.6188 20.9719 81.7069 21.2245C81.7951 21.4772 81.936 21.7082 82.1202 21.9023C82.3045 22.0963 82.528 22.2489 82.7758 22.35C83.0236 22.451 83.29 22.4982 83.5575 22.4883C83.9088 22.5212 84.2614 22.4399 84.5627 22.2563C84.8641 22.0728 85.0982 21.7968 85.2301 21.4696L86.6418 21.4696ZM81.616 19.3079H85.2371C85.2505 19.0682 85.2141 18.8283 85.1304 18.6034C85.0467 18.3784 84.9173 18.1732 84.7505 18.0006C84.5837 17.8279 84.383 17.6917 84.161 17.6003C83.939 17.5089 83.7006 17.4644 83.4606 17.4696C83.2185 17.4681 82.9785 17.5147 82.7544 17.6064C82.5304 17.6982 82.3268 17.8335 82.1553 18.0044C81.9838 18.1753 81.8479 18.3785 81.7553 18.6022C81.6627 18.8259 81.6154 19.0658 81.616 19.3079Z" fill="white"/>
<path d="M29.3953 6.18491C29.707 6.16254 30.0198 6.20963 30.311 6.32277C30.6023 6.43592 30.8649 6.6123 31.0798 6.8392C31.2946 7.0661 31.4565 7.33786 31.5536 7.63488C31.6507 7.9319 31.6807 8.24677 31.6414 8.55678C31.6414 10.0818 30.8172 10.9584 29.3953 10.9584H27.6711V6.18491H29.3953ZM28.4125 10.2833H29.3125C29.5352 10.2966 29.7581 10.2601 29.9649 10.1764C30.1718 10.0927 30.3573 9.96396 30.5081 9.79951C30.6589 9.63506 30.7711 9.43905 30.8366 9.22575C30.9021 9.01246 30.9192 8.78725 30.8867 8.56651C30.9169 8.34664 30.898 8.12282 30.8315 7.91109C30.765 7.69936 30.6525 7.50496 30.5021 7.34181C30.3516 7.17867 30.167 7.05082 29.9613 6.96743C29.7556 6.88404 29.5341 6.84718 29.3125 6.85947H28.4125V10.2833Z" fill="white"/>
<path d="M32.4789 9.15558C32.4562 8.91884 32.4833 8.67999 32.5584 8.45433C32.6335 8.22868 32.7549 8.02121 32.9148 7.84522C33.0748 7.66923 33.2698 7.52862 33.4872 7.4324C33.7047 7.33618 33.9399 7.28648 34.1777 7.28648C34.4155 7.28648 34.6507 7.33618 34.8682 7.4324C35.0857 7.52862 35.2807 7.66923 35.4406 7.84522C35.6006 8.02121 35.722 8.22868 35.797 8.45433C35.8721 8.67999 35.8992 8.91884 35.8765 9.15558C35.8996 9.39256 35.8729 9.63174 35.798 9.85776C35.7231 10.0838 35.6018 10.2916 35.4418 10.468C35.2818 10.6443 35.0867 10.7852 34.869 10.8816C34.6513 10.9781 34.4158 11.0279 34.1777 11.0279C33.9396 11.0279 33.7042 10.9781 33.4865 10.8816C33.2688 10.7852 33.0736 10.6443 32.9136 10.468C32.7537 10.2916 32.6323 10.0838 32.5574 9.85776C32.4826 9.63174 32.4558 9.39256 32.4789 9.15558ZM35.1453 9.15558C35.1453 8.37472 34.7945 7.91808 34.1789 7.91808C33.5609 7.91808 33.2133 8.37472 33.2133 9.15559C33.2133 9.9427 33.5609 10.3958 34.1789 10.3958C34.7945 10.3958 35.1453 9.93956 35.1453 9.15558Z" fill="white"/>
<path d="M40.393 10.9583H39.6555L38.9109 8.30518H38.8547L38.1133 10.9583H37.3828L36.3898 7.35596H37.1109L37.7562 10.1048H37.8094L38.55 7.35596H39.232L39.9726 10.1048H40.0289L40.6711 7.35596H41.382L40.393 10.9583Z" fill="white"/>
<path d="M42.2172 7.35596H42.9015V7.92823H42.9547C43.0448 7.72269 43.1968 7.55039 43.3895 7.43535C43.5822 7.3203 43.806 7.26824 44.0297 7.28643C44.205 7.27325 44.3809 7.29968 44.5446 7.36375C44.7083 7.42783 44.8555 7.52791 44.9752 7.65659C45.095 7.78526 45.1842 7.93923 45.2364 8.10709C45.2885 8.27494 45.3023 8.45239 45.2765 8.62627V10.9583H44.5656V8.8048C44.5656 8.22589 44.314 7.938 43.7883 7.938C43.6693 7.93245 43.5505 7.95271 43.44 7.99737C43.3296 8.04204 43.2301 8.11005 43.1484 8.19676C43.0667 8.28347 43.0047 8.38682 42.9667 8.49972C42.9287 8.61263 42.9155 8.73242 42.9281 8.85088V10.9583H42.2172L42.2172 7.35596Z" fill="white"/>
<path d="M46.4094 5.94971H47.1203V10.9583H46.4094V5.94971Z" fill="white"/>
<path d="M48.1086 9.15558C48.0859 8.91883 48.113 8.67996 48.1881 8.4543C48.2632 8.22863 48.3846 8.02115 48.5446 7.84516C48.7046 7.66917 48.8996 7.52856 49.1171 7.43234C49.3346 7.33611 49.5698 7.28641 49.8076 7.28641C50.0454 7.28641 50.2806 7.33611 50.4981 7.43234C50.7156 7.52856 50.9106 7.66917 51.0706 7.84516C51.2305 8.02115 51.352 8.22863 51.4271 8.4543C51.5022 8.67996 51.5293 8.91883 51.5066 9.15558C51.5297 9.39257 51.5029 9.63175 51.428 9.85777C51.3531 10.0838 51.2317 10.2916 51.0717 10.468C50.9117 10.6443 50.7166 10.7852 50.4989 10.8816C50.2812 10.978 50.0457 11.0279 49.8076 11.0279C49.5695 11.0279 49.334 10.978 49.1163 10.8816C48.8986 10.7852 48.7035 10.6443 48.5435 10.468C48.3835 10.2916 48.2621 10.0838 48.1872 9.85777C48.1123 9.63175 48.0855 9.39257 48.1086 9.15558ZM50.775 9.15558C50.775 8.37472 50.4242 7.91808 49.8086 7.91808C49.1906 7.91808 48.843 8.37472 48.843 9.15559C48.843 9.9427 49.1906 10.3958 49.8086 10.3958C50.4242 10.3958 50.775 9.93956 50.775 9.15558Z" fill="white"/>
<path d="M52.2551 9.93956C52.2551 9.29112 52.7379 8.9173 53.5949 8.86417L54.5707 8.80792V8.49699C54.5707 8.11652 54.3191 7.90167 53.8332 7.90167C53.4363 7.90167 53.1613 8.04738 53.0824 8.30207H52.3941C52.4668 7.68331 53.0488 7.28644 53.866 7.28644C54.7691 7.28644 55.2785 7.73604 55.2785 8.49699V10.9583H54.5941V10.4521H54.5379C54.4237 10.6337 54.2634 10.7817 54.0733 10.8811C53.8832 10.9804 53.6701 11.0276 53.4558 11.0177C53.3046 11.0334 53.1518 11.0173 53.0072 10.9703C52.8626 10.9233 52.7294 10.8466 52.6163 10.745C52.5031 10.6435 52.4125 10.5193 52.3503 10.3806C52.2881 10.2418 52.2557 10.0916 52.2551 9.93956ZM54.5707 9.63175V9.33058L53.691 9.38683C53.1949 9.42003 52.9699 9.58878 52.9699 9.90635C52.9699 10.2306 53.2511 10.4192 53.6379 10.4192C53.7512 10.4307 53.8657 10.4193 53.9745 10.3856C54.0833 10.3519 54.1842 10.2967 54.2712 10.2232C54.3583 10.1498 54.4296 10.0595 54.4811 9.95792C54.5325 9.85631 54.563 9.74538 54.5707 9.63175Z" fill="white"/>
<path d="M56.2129 9.15558C56.2129 8.0173 56.798 7.2962 57.7082 7.2962C57.9333 7.28583 58.1568 7.33975 58.3524 7.45167C58.548 7.56358 58.7077 7.72887 58.8129 7.9282H58.866V5.94971H59.5769V10.9583H58.8957V10.3892H58.8394C58.7262 10.5871 58.5609 10.7504 58.3615 10.8612C58.1621 10.9719 57.9361 11.0261 57.7082 11.0177C56.7918 11.0177 56.2129 10.2966 56.2129 9.15558ZM56.9473 9.15558C56.9473 9.91964 57.3074 10.3794 57.9098 10.3794C58.509 10.3794 58.8793 9.91301 58.8793 9.15871C58.8793 8.40792 58.5051 7.93487 57.9098 7.93487C57.3113 7.93487 56.9473 8.39776 56.9473 9.15558Z" fill="white"/>
<path d="M62.5183 9.15558C62.4957 8.91884 62.5228 8.67999 62.5978 8.45433C62.6729 8.22868 62.7943 8.02121 62.9543 7.84522C63.1142 7.66923 63.3092 7.52862 63.5267 7.4324C63.7442 7.33618 63.9794 7.28648 64.2172 7.28648C64.455 7.28648 64.6902 7.33618 64.9077 7.4324C65.1251 7.52862 65.3201 7.66923 65.4801 7.84522C65.64 8.02121 65.7614 8.22868 65.8365 8.45433C65.9116 8.67999 65.9386 8.91884 65.916 9.15558C65.9391 9.39256 65.9123 9.63174 65.8374 9.85776C65.7626 10.0838 65.6412 10.2916 65.4812 10.468C65.3212 10.6443 65.1261 10.7852 64.9084 10.8816C64.6907 10.9781 64.4553 11.0279 64.2172 11.0279C63.9791 11.0279 63.7436 10.9781 63.5259 10.8816C63.3082 10.7852 63.1131 10.6443 62.9531 10.468C62.7931 10.2916 62.6718 10.0838 62.5969 9.85776C62.522 9.63174 62.4953 9.39256 62.5183 9.15558ZM65.1847 9.15558C65.1847 8.37472 64.834 7.91808 64.2183 7.91808C63.6004 7.91808 63.2527 8.37472 63.2527 9.15559C63.2527 9.9427 63.6004 10.3958 64.2183 10.3958C64.834 10.3958 65.1847 9.93956 65.1847 9.15558Z" fill="white"/>
<path d="M66.8699 7.35596H67.5543V7.92823H67.6074C67.6975 7.72269 67.8495 7.55039 68.0422 7.43535C68.2349 7.3203 68.4587 7.26824 68.6824 7.28643C68.8577 7.27325 69.0337 7.29968 69.1974 7.36375C69.361 7.42783 69.5082 7.52791 69.628 7.65659C69.7477 7.78526 69.837 7.93923 69.8891 8.10709C69.9413 8.27494 69.955 8.45239 69.9293 8.62627V10.9583H69.2183V8.8048C69.2183 8.22589 68.9668 7.938 68.441 7.938C68.322 7.93245 68.2032 7.95271 68.0927 7.99737C67.9823 8.04204 67.8828 8.11005 67.8011 8.19676C67.7194 8.28347 67.6574 8.38682 67.6194 8.49972C67.5814 8.61263 67.5682 8.73242 67.5808 8.85088V10.9583H66.8699V7.35596Z" fill="white"/>
<path d="M73.9465 6.45909V7.37237H74.7269V7.9712H73.9465V9.82355C73.9465 10.2009 74.1019 10.3661 74.4558 10.3661C74.5464 10.3658 74.637 10.3604 74.7269 10.3497V10.9419C74.5993 10.9647 74.4699 10.9769 74.3402 10.9782C73.5496 10.9782 73.2348 10.7001 73.2348 10.0056V7.97117H72.6629V7.37234H73.2348V6.45909H73.9465Z" fill="white"/>
<path d="M75.698 5.94971H76.4027V7.93487H76.459C76.5535 7.72741 76.7096 7.55414 76.9062 7.43866C77.1028 7.32318 77.3301 7.27112 77.5574 7.28955C77.7317 7.28007 77.906 7.30918 78.0679 7.37481C78.2297 7.44045 78.375 7.54098 78.4935 7.66925C78.612 7.79752 78.7008 7.95037 78.7534 8.11687C78.806 8.28338 78.8212 8.45945 78.798 8.63252V10.9583H78.0863V8.80791C78.0863 8.23252 77.8183 7.94111 77.316 7.94111C77.1938 7.93109 77.0709 7.94788 76.9559 7.99033C76.8409 8.03277 76.7365 8.09983 76.6501 8.18682C76.5637 8.27381 76.4974 8.37863 76.4557 8.49394C76.4141 8.60925 76.3981 8.73227 76.409 8.85439V10.9583H75.6981L75.698 5.94971Z" fill="white"/>
<path d="M82.9433 9.98565C82.8468 10.3149 82.6375 10.5997 82.3521 10.7902C82.0668 10.9807 81.7235 11.0648 81.3824 11.0278C81.1451 11.0341 80.9092 10.9886 80.6912 10.8946C80.4732 10.8006 80.2783 10.6603 80.12 10.4834C79.9616 10.3064 79.8437 10.0972 79.7743 9.87014C79.705 9.64308 79.6859 9.40365 79.7183 9.16847C79.6867 8.93256 79.7062 8.69261 79.7754 8.46488C79.8446 8.23714 79.9619 8.02692 80.1194 7.84846C80.2769 7.67001 80.4709 7.52747 80.6882 7.4305C80.9056 7.33354 81.1413 7.28441 81.3793 7.28644C82.3816 7.28644 82.9863 7.97123 82.9863 9.10243V9.35051H80.4426V9.39035C80.4314 9.52254 80.448 9.65561 80.4913 9.78101C80.5346 9.90641 80.6037 10.0214 80.694 10.1185C80.7843 10.2157 80.894 10.2929 81.0159 10.3452C81.1378 10.3976 81.2693 10.4238 81.4019 10.4223C81.572 10.4428 81.7443 10.4121 81.8969 10.3344C82.0495 10.2566 82.1755 10.1352 82.259 9.98563L82.9433 9.98565ZM80.4425 8.82471H82.2621C82.271 8.70381 82.2546 8.58237 82.2138 8.4682C82.1731 8.35402 82.1089 8.24964 82.0254 8.16175C81.9419 8.07387 81.8409 8.00442 81.7289 7.95788C81.617 7.91134 81.4966 7.88874 81.3754 7.89151C81.2524 7.88997 81.1304 7.91306 81.0165 7.95941C80.9026 8.00577 80.7991 8.07446 80.7122 8.16143C80.6252 8.2484 80.5566 8.35189 80.5103 8.46581C80.464 8.57972 80.4409 8.70176 80.4425 8.82471Z" fill="white"/>
</g>
<defs>
<clipPath id="clip0_11951_283749">
<rect width="96" height="32" fill="white" transform="translate(0.200012)"/>
</clipPath>
</defs>
</svg>
