<svg width="64" height="64" viewBox="0 0 64 64" fill="none" xmlns="http://www.w3.org/2000/svg">
<path fill-rule="evenodd" clip-rule="evenodd" d="M16 18.6666C17.4727 18.6666 18.6667 17.4727 18.6667 16C18.6667 14.5272 17.4727 13.3333 16 13.3333C14.5272 13.3333 13.3333 14.5272 13.3333 16C13.3333 17.4727 14.5272 18.6666 16 18.6666ZM20.5948 18.7095C21.064 17.9154 21.3333 16.9891 21.3333 16C21.3333 13.0544 18.9455 10.6666 16 10.6666C13.0545 10.6666 10.6667 13.0544 10.6667 16C10.6667 18.9455 13.0545 21.3333 16 21.3333C16.989 21.3333 17.9151 21.0641 18.7091 20.595L23.5732 25.4591C24.1207 24.7548 24.7545 24.121 25.4588 23.5735L20.5948 18.7095ZM48 18.6666C49.4727 18.6666 50.6667 17.4727 50.6667 16C50.6667 14.5272 49.4727 13.3333 48 13.3333C46.5272 13.3333 45.3333 14.5272 45.3333 16C45.3333 17.4727 46.5272 18.6666 48 18.6666ZM48 21.3333C50.9455 21.3333 53.3333 18.9455 53.3333 16C53.3333 13.0544 50.9455 10.6666 48 10.6666C45.0545 10.6666 42.6667 13.0544 42.6667 16C42.6667 18.9455 45.0545 21.3333 48 21.3333ZM18.6667 48C18.6667 49.4727 17.4727 50.6666 16 50.6666C14.5272 50.6666 13.3333 49.4727 13.3333 48C13.3333 46.5272 14.5272 45.3333 16 45.3333C17.4727 45.3333 18.6667 46.5272 18.6667 48ZM21.3333 48C21.3333 50.9455 18.9455 53.3333 16 53.3333C13.0545 53.3333 10.6667 50.9455 10.6667 48C10.6667 45.0544 13.0545 42.6666 16 42.6666C16.989 42.6666 17.9151 42.9358 18.7091 43.4049L23.5732 38.5408C24.1207 39.2451 24.7545 39.879 25.4588 40.4265L20.5948 45.2905C21.064 46.0845 21.3333 47.0108 21.3333 48ZM48 50.6666C49.4727 50.6666 50.6667 49.4727 50.6667 48C50.6667 46.5272 49.4727 45.3333 48 45.3333C46.5272 45.3333 45.3333 46.5272 45.3333 48C45.3333 49.4727 46.5272 50.6666 48 50.6666ZM48 53.3333C50.9455 53.3333 53.3333 50.9455 53.3333 48C53.3333 45.0544 50.9455 42.6666 48 42.6666C45.0545 42.6666 42.6667 45.0544 42.6667 48C42.6667 50.9455 45.0545 53.3333 48 53.3333ZM40 32C40 36.4182 36.4183 40 32 40C27.5817 40 24 36.4182 24 32C24 27.5817 27.5817 24 32 24C36.4183 24 40 27.5817 40 32ZM38.5407 40.4266C36.7344 41.8306 34.4649 42.6666 32 42.6666C26.109 42.6666 21.3333 37.891 21.3333 32C21.3333 26.1089 26.109 21.3333 32 21.3333C34.4649 21.3333 36.7345 22.1694 38.5407 23.5734L43.4048 18.7093C43.8637 19.4859 44.5138 20.136 45.2904 20.5949L40.4263 25.4589C41.8305 27.2652 42.6667 29.5349 42.6667 32C42.6667 34.465 41.8305 36.7347 40.4263 38.541L45.2904 43.4051C44.5138 43.864 43.8637 44.5141 43.4048 45.2907L38.5407 40.4266Z" fill="#FF6B00"/>
</svg>
