<svg width="64" height="64" viewBox="0 0 64 64" fill="none" xmlns="http://www.w3.org/2000/svg">
<path fill-rule="evenodd" clip-rule="evenodd" d="M18.6667 14.6667C18.6667 13.9303 19.2636 13.3334 20 13.3334C20.7364 13.3334 21.3333 13.9303 21.3333 14.6667V16H42.6667V14.6667C42.6667 13.9303 43.2636 13.3334 44 13.3334C44.7364 13.3334 45.3333 13.9303 45.3333 14.6667V16H50.6667C52.1394 16 53.3333 17.1939 53.3333 18.6667V24V48C53.3333 49.4728 52.1394 50.6667 50.6667 50.6667H13.3333C11.8606 50.6667 10.6667 49.4728 10.6667 48V24V18.6667C10.6667 17.1939 11.8606 16 13.3333 16H18.6667V14.6667ZM13.3333 24H50.6667V18.6667H13.3333V24ZM50.6667 26.6667H13.3333V48H50.6667V26.6667ZM39.6312 32.327C40.1229 31.8579 40.1229 31.0972 39.6312 30.628C39.1395 30.1589 38.3422 30.1589 37.8505 30.628L30.2957 38.54L26.1495 34.584C25.6578 34.1148 24.8605 34.1148 24.3688 34.584C23.8771 35.0532 23.8771 35.8138 24.3688 36.283L28.515 40.239C29.4985 41.1773 31.0929 41.1773 32.0764 40.239L39.6312 32.327Z" fill="#FF6B00"/>
</svg>
