<svg width="108" height="32" viewBox="0 0 108 32" fill="none" xmlns="http://www.w3.org/2000/svg">
<g clip-path="url(#clip0_11951_283748)">
<path d="M103.23 32H3.97037C1.78667 32 0 30.2 0 28V4C0 1.8 1.78667 0 3.97037 0H103.23C105.413 0 107.2 1.8 107.2 4V28C107.2 30.2 105.413 32 103.23 32Z" fill="black"/>
<path d="M37.7266 8.19209C37.7266 8.86409 37.5266 9.40009 37.1266 9.79209C36.6786 10.2641 36.0866 10.5041 35.3666 10.5041C34.6706 10.5041 34.0866 10.2641 33.5986 9.78409C33.1106 9.30409 32.8706 8.70409 32.8706 8.00009C32.8706 7.28809 33.1106 6.69609 33.5986 6.21609C34.0866 5.73609 34.6706 5.49609 35.3666 5.49609C35.7106 5.49609 36.0386 5.56009 36.3506 5.69609C36.6626 5.83209 36.9106 6.00809 37.1026 6.23209L36.6786 6.65609C36.3586 6.28009 35.9266 6.08809 35.3666 6.08809C34.8626 6.08809 34.4226 6.26409 34.0546 6.62409C33.6866 6.97609 33.5026 7.44009 33.5026 8.00809C33.5026 8.57609 33.6866 9.04009 34.0546 9.39209C34.4226 9.74409 34.8626 9.92809 35.3666 9.92809C35.9026 9.92809 36.3506 9.75209 36.7106 9.39209C36.9426 9.16009 37.0786 8.83209 37.1106 8.41609H35.3666V7.84009H37.6946C37.7106 7.96009 37.7266 8.08009 37.7266 8.19209Z" fill="white"/>
<path d="M41.4146 6.19209H39.2306V7.71209H41.1986V8.28809H39.2306V9.80809H41.4146V10.4001H38.6146V5.60009H41.4146V6.19209Z" fill="white"/>
<path d="M44.0146 10.4001H43.3986V6.19209H42.0546V5.60009H45.3506V6.19209H44.0066V10.4001H44.0146Z" fill="white"/>
<path d="M47.7426 10.4001V5.60009H48.3586V10.4001H47.7426Z" fill="white"/>
<path d="M51.0946 10.4001H50.4786V6.19209H49.1346V5.60009H52.4306V6.19209H51.0866V10.4001H51.0946Z" fill="white"/>
<path d="M58.6786 9.77609C58.2066 10.2641 57.6226 10.5041 56.9186 10.5041C56.2146 10.5041 55.6306 10.2641 55.1586 9.77609C54.6866 9.28809 54.4546 8.69609 54.4546 8.00009C54.4546 7.30409 54.6866 6.70409 55.1586 6.22409C55.6306 5.73609 56.2146 5.49609 56.9186 5.49609C57.6146 5.49609 58.1986 5.73609 58.6786 6.22409C59.1506 6.71209 59.3906 7.30409 59.3906 8.00009C59.3826 8.70409 59.1506 9.29609 58.6786 9.77609ZM55.6146 9.37609C55.9666 9.73609 56.4066 9.91209 56.9186 9.91209C57.4306 9.91209 57.8706 9.73609 58.2226 9.37609C58.5746 9.01609 58.7586 8.56009 58.7586 8.00009C58.7586 7.44009 58.5826 6.98409 58.2226 6.62409C57.8706 6.26409 57.4306 6.08809 56.9186 6.08809C56.4066 6.08809 55.9666 6.26409 55.6146 6.62409C55.2626 6.98409 55.0786 7.44009 55.0786 8.00009C55.0786 8.56009 55.2626 9.01609 55.6146 9.37609Z" fill="white"/>
<path d="M60.2546 10.4001V5.60009H61.0066L63.3426 9.33609H63.3666L63.3426 8.40809V5.60009H63.9586V10.4001H63.3186L60.8786 6.48809H60.8546L60.8786 7.41609V10.4001H60.2546Z" fill="white"/>
<path d="M37.7266 8.19209C37.7266 8.86409 37.5266 9.40009 37.1266 9.79209C36.6786 10.2641 36.0866 10.5041 35.3666 10.5041C34.6706 10.5041 34.0866 10.2641 33.5986 9.78409C33.1106 9.30409 32.8706 8.70409 32.8706 8.00009C32.8706 7.28809 33.1106 6.69609 33.5986 6.21609C34.0866 5.73609 34.6706 5.49609 35.3666 5.49609C35.7106 5.49609 36.0386 5.56009 36.3506 5.69609C36.6626 5.83209 36.9106 6.00809 37.1026 6.23209L36.6786 6.65609C36.3586 6.28009 35.9266 6.08809 35.3666 6.08809C34.8626 6.08809 34.4226 6.26409 34.0546 6.62409C33.6866 6.97609 33.5026 7.44009 33.5026 8.00809C33.5026 8.57609 33.6866 9.04009 34.0546 9.39209C34.4226 9.74409 34.8626 9.92809 35.3666 9.92809C35.9026 9.92809 36.3506 9.75209 36.7106 9.39209C36.9426 9.16009 37.0786 8.83209 37.1106 8.41609H35.3666V7.84009H37.6946C37.7106 7.96009 37.7266 8.08009 37.7266 8.19209Z" stroke="white" stroke-width="0.2" stroke-miterlimit="10"/>
<path d="M41.4146 6.19209H39.2306V7.71209H41.1986V8.28809H39.2306V9.80809H41.4146V10.4001H38.6146V5.60009H41.4146V6.19209Z" stroke="white" stroke-width="0.2" stroke-miterlimit="10"/>
<path d="M44.0146 10.4001H43.3986V6.19209H42.0546V5.60009H45.3506V6.19209H44.0066V10.4001H44.0146Z" stroke="white" stroke-width="0.2" stroke-miterlimit="10"/>
<path d="M47.7426 10.4001V5.60009H48.3586V10.4001H47.7426Z" stroke="white" stroke-width="0.2" stroke-miterlimit="10"/>
<path d="M51.0946 10.4001H50.4786V6.19209H49.1346V5.60009H52.4306V6.19209H51.0866V10.4001H51.0946Z" stroke="white" stroke-width="0.2" stroke-miterlimit="10"/>
<path d="M58.6786 9.77609C58.2066 10.2641 57.6226 10.5041 56.9186 10.5041C56.2146 10.5041 55.6306 10.2641 55.1586 9.77609C54.6866 9.28809 54.4546 8.69609 54.4546 8.00009C54.4546 7.30409 54.6866 6.70409 55.1586 6.22409C55.6306 5.73609 56.2146 5.49609 56.9186 5.49609C57.6146 5.49609 58.1986 5.73609 58.6786 6.22409C59.1506 6.71209 59.3906 7.30409 59.3906 8.00009C59.3826 8.70409 59.1506 9.29609 58.6786 9.77609ZM55.6146 9.37609C55.9666 9.73609 56.4066 9.91209 56.9186 9.91209C57.4306 9.91209 57.8706 9.73609 58.2226 9.37609C58.5746 9.01609 58.7586 8.56009 58.7586 8.00009C58.7586 7.44009 58.5826 6.98409 58.2226 6.62409C57.8706 6.26409 57.4306 6.08809 56.9186 6.08809C56.4066 6.08809 55.9666 6.26409 55.6146 6.62409C55.2626 6.98409 55.0786 7.44009 55.0786 8.00009C55.0786 8.56009 55.2626 9.01609 55.6146 9.37609Z" stroke="white" stroke-width="0.2" stroke-miterlimit="10"/>
<path d="M60.2546 10.4001V5.60009H61.0066L63.3426 9.33609H63.3666L63.3426 8.40809V5.60009H63.9586V10.4001H63.3186L60.8786 6.48809H60.8546L60.8786 7.41609V10.4001H60.2546Z" stroke="white" stroke-width="0.2" stroke-miterlimit="10"/>
<path d="M54.3026 17.4001C52.4226 17.4001 50.8866 18.8321 50.8866 20.8001C50.8866 22.7601 52.4226 24.2001 54.3026 24.2001C56.1826 24.2001 57.7186 22.7601 57.7186 20.8001C57.7186 18.8321 56.1826 17.4001 54.3026 17.4001ZM54.3026 22.8641C53.2706 22.8641 52.3826 22.0161 52.3826 20.8001C52.3826 19.5761 53.2706 18.7361 54.3026 18.7361C55.3346 18.7361 56.2226 19.5761 56.2226 20.8001C56.2226 22.0161 55.3266 22.8641 54.3026 22.8641ZM46.8466 17.4001C44.9666 17.4001 43.4306 18.8321 43.4306 20.8001C43.4306 22.7601 44.9666 24.2001 46.8466 24.2001C48.7266 24.2001 50.2626 22.7601 50.2626 20.8001C50.2626 18.8321 48.7266 17.4001 46.8466 17.4001ZM46.8466 22.8641C45.8146 22.8641 44.9266 22.0161 44.9266 20.8001C44.9266 19.5761 45.8146 18.7361 46.8466 18.7361C47.8786 18.7361 48.7666 19.5761 48.7666 20.8001C48.7666 22.0161 47.8786 22.8641 46.8466 22.8641ZM37.9826 18.4481V19.8881H41.4386C41.3346 20.6961 41.0626 21.2961 40.6546 21.7041C40.1506 22.2081 39.3666 22.7601 37.9906 22.7601C35.8626 22.7601 34.1986 21.0481 34.1986 18.9201C34.1986 16.7921 35.8626 15.0801 37.9906 15.0801C39.1346 15.0801 39.9746 15.5281 40.5906 16.1121L41.6066 15.0961C40.7426 14.2721 39.5986 13.6401 37.9826 13.6401C35.0706 13.6401 32.6226 16.0081 32.6226 18.9281C32.6226 21.8401 35.0706 24.2161 37.9826 24.2161C39.5586 24.2161 40.7426 23.7041 41.6706 22.7361C42.6226 21.7841 42.9186 20.4401 42.9186 19.3601C42.9186 19.0241 42.8946 18.7121 42.8386 18.4561H37.9826V18.4481ZM74.2306 19.5681C73.9506 18.8081 73.0866 17.4001 71.3186 17.4001C69.5666 17.4001 68.1106 18.7761 68.1106 20.8001C68.1106 22.7041 69.5506 24.2001 71.4866 24.2001C73.0466 24.2001 73.9506 23.2481 74.3186 22.6961L73.1586 21.9201C72.7746 22.4881 72.2466 22.8641 71.4866 22.8641C70.7266 22.8641 70.1826 22.5121 69.8386 21.8321L74.3906 19.9521L74.2306 19.5681ZM69.5906 20.7041C69.5506 19.3921 70.6066 18.7201 71.3666 18.7201C71.9586 18.7201 72.4626 19.0161 72.6306 19.4401L69.5906 20.7041ZM65.8946 24.0001H67.3906V14.0001H65.8946V24.0001ZM63.4466 18.1601H63.3906C63.0546 17.7601 62.4146 17.4001 61.5986 17.4001C59.8946 17.4001 58.3346 18.8961 58.3346 20.8161C58.3346 22.7201 59.8946 24.2081 61.5986 24.2081C62.4066 24.2081 63.0546 23.8481 63.3906 23.4321H63.4386V23.9201C63.4386 25.2241 62.7426 25.9201 61.6226 25.9201C60.7106 25.9201 60.1426 25.2641 59.9106 24.7121L58.6066 25.2561C58.9826 26.1601 59.9746 27.2641 61.6226 27.2641C63.3746 27.2641 64.8546 26.2321 64.8546 23.7201V17.6081H63.4386V18.1601H63.4466ZM61.7266 22.8641C60.6946 22.8641 59.8306 22.0001 59.8306 20.8161C59.8306 19.6161 60.6946 18.7441 61.7266 18.7441C62.7426 18.7441 63.5426 19.6241 63.5426 20.8161C63.5506 22.0001 62.7506 22.8641 61.7266 22.8641ZM81.2386 14.0001H77.6626V24.0001H79.1586V20.2081H81.2466C82.9026 20.2081 84.5266 19.0081 84.5266 17.1041C84.5266 15.2001 82.8866 14.0001 81.2386 14.0001ZM81.2706 18.8161H79.1506V15.3841H81.2706C82.3906 15.3841 83.0226 16.3121 83.0226 17.0961C83.0226 17.8801 82.3906 18.8161 81.2706 18.8161ZM90.5026 17.3841C89.4226 17.3841 88.3026 17.8641 87.8386 18.9121L89.1666 19.4641C89.4466 18.9121 89.9746 18.7281 90.5266 18.7281C91.2946 18.7281 92.0866 19.1921 92.0946 20.0161V20.1201C91.8226 19.9681 91.2466 19.7361 90.5346 19.7361C89.1026 19.7361 87.6546 20.5201 87.6546 21.9841C87.6546 23.3201 88.8226 24.1841 90.1346 24.1841C91.1346 24.1841 91.6946 23.7361 92.0386 23.2081H92.0866V23.9841H93.5266V20.1521C93.5346 18.3761 92.2066 17.3841 90.5026 17.3841ZM90.3186 22.8641C89.8306 22.8641 89.1506 22.6161 89.1506 22.0161C89.1506 21.2481 89.9986 20.9521 90.7346 20.9521C91.3906 20.9521 91.7026 21.0961 92.0946 21.2881C91.9826 22.2081 91.1826 22.8641 90.3186 22.8641ZM98.7826 17.6001L97.0706 21.9361H97.0226L95.2466 17.6001H93.6386L96.3026 23.6641L94.7826 27.0321H96.3426L100.447 17.6001H98.7826ZM85.3426 24.0001H86.8386V14.0001H85.3426V24.0001Z" fill="white"/>
<path d="M8.1426 6.03208C7.9106 6.28008 7.7746 6.66408 7.7746 7.15208V24.8481C7.7746 25.3441 7.9106 25.7281 8.1426 25.9681L8.1986 26.0241L18.1106 16.1201V16.0001V15.8801L8.1986 5.97607L8.1426 6.03208Z" fill="url(#paint0_linear_11951_283748)"/>
<path d="M21.4146 19.4242L18.1106 16.1202V16.0002V15.8802L21.4146 12.5762L21.4866 12.6162L25.3986 14.8402C26.5186 15.4722 26.5186 16.5122 25.3986 17.1522L21.4866 19.3762L21.4146 19.4242Z" fill="url(#paint1_linear_11951_283748)"/>
<path d="M21.4866 19.376L18.1106 16L8.14258 25.968C8.51058 26.36 9.11858 26.408 9.80658 26.016L21.4866 19.376Z" fill="url(#paint2_linear_11951_283748)"/>
<path d="M21.4866 12.624L9.79858 5.98399C9.11058 5.59199 8.50258 5.63999 8.13458 6.03199L18.1106 16L21.4866 12.624Z" fill="url(#paint3_linear_11951_283748)"/>
<path opacity="0.2" d="M21.4146 19.3042L9.79858 25.9042C9.15058 26.2722 8.56658 26.2482 8.19858 25.9122L8.14258 25.9682L8.19858 26.0242C8.57458 26.3602 9.15058 26.3842 9.79858 26.0162L21.4866 19.3762L21.4146 19.3042Z" fill="black"/>
<path opacity="0.12" d="M8.1426 25.8563C7.9106 25.6083 7.7746 25.2243 7.7746 24.7363V24.8563C7.7746 25.3523 7.9106 25.7363 8.1426 25.9763L8.1986 25.9203L8.1426 25.8563Z" fill="black"/>
<path opacity="0.12" d="M25.3986 17.04L21.4066 19.304L21.4786 19.376L25.3906 17.152C25.9506 16.832 26.2306 16.416 26.2306 16C26.1906 16.376 25.9106 16.752 25.3986 17.04Z" fill="black"/>
<path opacity="0.25" d="M9.7986 6.09595L25.3986 14.96C25.9026 15.248 26.1906 15.6159 26.2386 15.9999C26.2386 15.5839 25.9586 15.1599 25.3986 14.8479L9.7986 5.98395C8.6786 5.35195 7.7666 5.87995 7.7666 7.15995V7.27995C7.7666 5.99195 8.6866 5.46395 9.7986 6.09595Z" fill="white"/>
</g>
<defs>
<linearGradient id="paint0_linear_11951_283748" x1="17.2304" y1="6.96783" x2="3.80444" y2="20.3938" gradientUnits="userSpaceOnUse">
<stop stop-color="#00A0FF"/>
<stop offset="0.00657445" stop-color="#00A1FF"/>
<stop offset="0.2601" stop-color="#00BEFF"/>
<stop offset="0.5122" stop-color="#00D2FF"/>
<stop offset="0.7604" stop-color="#00DFFF"/>
<stop offset="1" stop-color="#00E3FF"/>
</linearGradient>
<linearGradient id="paint1_linear_11951_283748" x1="26.8581" y1="16.0013" x2="7.5006" y2="16.0013" gradientUnits="userSpaceOnUse">
<stop stop-color="#FFE000"/>
<stop offset="0.4087" stop-color="#FFBD00"/>
<stop offset="0.7754" stop-color="#FFA500"/>
<stop offset="1" stop-color="#FF9C00"/>
</linearGradient>
<linearGradient id="paint2_linear_11951_283748" x1="19.6522" y1="17.8369" x2="1.44554" y2="36.0435" gradientUnits="userSpaceOnUse">
<stop stop-color="#FF3A44"/>
<stop offset="1" stop-color="#C31162"/>
</linearGradient>
<linearGradient id="paint3_linear_11951_283748" x1="5.62842" y1="0.14095" x2="13.7585" y2="8.27095" gradientUnits="userSpaceOnUse">
<stop stop-color="#32A071"/>
<stop offset="0.0685" stop-color="#2DA771"/>
<stop offset="0.4762" stop-color="#15CF74"/>
<stop offset="0.8009" stop-color="#06E775"/>
<stop offset="1" stop-color="#00F076"/>
</linearGradient>
<clipPath id="clip0_11951_283748">
<rect width="107.2" height="32" fill="white"/>
</clipPath>
</defs>
</svg>
