<svg width="64" height="64" viewBox="0 0 64 64" fill="none" xmlns="http://www.w3.org/2000/svg">
<path fill-rule="evenodd" clip-rule="evenodd" d="M31.3473 9.50406C31.7527 9.27648 32.2473 9.27648 32.6527 9.50406L52.6527 20.7321C53.0731 20.9681 53.3333 21.4127 53.3333 21.8948V42.1053C53.3333 42.5874 53.0731 43.0319 52.6527 43.268L32.6527 54.496C32.2473 54.7236 31.7527 54.7236 31.3473 54.496L11.3473 43.268C10.9269 43.0319 10.6667 42.5874 10.6667 42.1053V21.8948C10.6667 21.4127 10.9269 20.9681 11.3473 20.7321L31.3473 9.50406ZM13.3333 24.1724L30.6667 33.9034V51.0558L13.3333 41.3248V24.1724ZM33.3333 51.0558L50.6667 41.3248V24.1724L33.3333 33.9034V51.0558ZM32 31.5938L39.2763 27.5088L22 17.8098L14.7237 21.8948L32 31.5938ZM24.7237 16.2807L42 25.9797L49.2763 21.8948L32 12.1958L24.7237 16.2807Z" fill="#FF6B00"/>
</svg>
