<svg width="64" height="64" viewBox="0 0 64 64" fill="none" xmlns="http://www.w3.org/2000/svg">
<path fill-rule="evenodd" clip-rule="evenodd" d="M30.4318 10.8787C31.0057 10.7595 31.5693 10.6667 31.9999 10.6667C32.4305 10.6667 32.9941 10.7595 33.5681 10.8787C34.1717 11.0041 34.8898 11.1816 35.6737 11.3938C37.2432 11.8186 39.1232 12.3957 40.9686 13.0115C42.8132 13.6271 44.6415 14.2875 46.1051 14.8813C46.8355 15.1775 47.4909 15.4636 48.0185 15.7244C48.4961 15.9606 49.0183 16.2462 49.3543 16.5642C49.8377 17.0226 50.2111 17.5379 50.4233 18.3146C50.6091 18.9943 50.6572 19.83 50.6654 20.8943C50.6722 21.7625 50.6509 22.8797 50.6234 24.3214V24.3214L50.6018 25.4701C50.565 27.4959 50.5262 30.1011 50.5262 33.4871C50.5262 40.9192 45.8075 45.8993 41.3474 48.9397C39.1037 50.4693 36.8694 51.5499 35.2009 52.2479C34.5783 52.6097 33.0665 53.3334 31.9999 53.3334C30.9333 53.3334 29.4215 52.6097 28.799 52.2479C27.1305 51.5499 24.8961 50.4693 22.6524 48.9397C18.1923 45.8993 13.4736 40.9192 13.4736 33.4871C13.4736 30.1011 13.4348 27.4959 13.398 25.4701L13.3766 24.3281L13.3766 24.3281L13.3766 24.3276L13.3766 24.3274C13.3491 22.8828 13.3278 21.7637 13.3347 20.8941C13.3431 19.8298 13.3914 18.9938 13.5777 18.3138C13.7904 17.5371 14.1636 17.0226 14.6474 16.5646C14.9833 16.2464 15.5057 15.9605 15.9826 15.7245C16.51 15.4636 17.1653 15.1776 17.8955 14.8813C19.3589 14.2876 21.187 13.6271 23.0314 13.0115C24.8767 12.3957 26.7567 11.8186 28.3262 11.3938C29.11 11.1816 29.8281 11.0041 30.4318 10.8787ZM31.9999 50.6032C31.9121 50.5745 31.8097 50.5404 31.6938 50.5006C31.2476 50.3476 30.6037 50.1122 29.8281 49.7878C28.2729 49.1372 26.2089 48.1368 24.1544 46.7363C20.018 43.9165 16.1402 39.6401 16.1402 33.4871C16.1402 30.0795 16.1012 27.457 16.0642 25.4217L16.0424 24.2556C16.0151 22.8164 15.9947 21.7455 16.0013 20.9152C16.0097 19.8527 16.0644 19.3293 16.1496 19.0183C16.2082 18.8042 16.2747 18.6961 16.481 18.5008L16.4779 18.5038C16.4779 18.5038 16.522 18.4681 16.6408 18.3963C16.7683 18.3192 16.9422 18.225 17.165 18.1147C17.6104 17.8944 18.199 17.636 18.8981 17.3523C20.2934 16.7862 22.0653 16.1452 23.8757 15.541C25.6852 14.9371 27.5147 14.3761 29.023 13.9678C29.778 13.7634 30.4408 13.6005 30.9741 13.4897C31.5373 13.3727 31.8669 13.3334 31.9999 13.3334C32.133 13.3334 32.4626 13.3727 33.0257 13.4897C33.5591 13.6005 34.2219 13.7634 34.9769 13.9678C36.4852 14.3761 38.3148 14.9371 40.1245 15.541C41.935 16.1452 43.7071 16.7862 45.1027 17.3524C45.802 17.636 46.3909 17.8945 46.8365 18.1148C47.0595 18.2251 47.2335 18.3194 47.3612 18.3965C47.4806 18.4685 47.5248 18.5044 47.5248 18.5044L47.5211 18.5008C47.7261 18.6954 47.7924 18.8034 47.851 19.0175C47.936 19.3288 47.9906 19.8524 47.9988 20.915C48.0049 21.6922 47.9874 22.6803 47.9626 23.9837L47.9576 24.2486L47.9356 25.4217C47.8986 27.457 47.8596 30.0795 47.8596 33.4871C47.8596 39.6401 43.9818 43.9165 39.8454 46.7363C37.7909 48.1368 35.727 49.1372 34.1718 49.7878C33.3962 50.1122 32.7522 50.3476 32.306 50.5006C32.1901 50.5404 32.0877 50.5745 31.9999 50.6032ZM41.2481 27.6093C41.7686 27.0885 41.7684 26.2443 41.2476 25.7237C40.7268 25.2031 39.8825 25.2033 39.362 25.7242L30.2262 34.8647L26.2769 30.9092C25.7566 30.3881 24.9124 30.3874 24.3913 30.9077C23.8702 31.428 23.8695 32.2722 24.3898 32.7933L29.2821 37.6933C29.5321 37.9438 29.8714 38.0845 30.2253 38.0846C30.5792 38.0847 30.9186 37.9441 31.1687 37.6938L41.2481 27.6093Z" fill="#FF6B00"/>
</svg>
